<svg width="50" height="50" viewBox="0 0 50 50" fill="none" xmlns="http://www.w3.org/2000/svg">
<path d="M39.5834 34.375H10.4167M39.5834 34.375C40.734 34.375 41.6667 33.4423 41.6667 32.2917V13.5417C41.6667 12.3911 40.734 11.4583 39.5834 11.4583H10.4167C9.26611 11.4583 8.33337 12.3911 8.33337 13.5417V32.2917C8.33337 33.4423 9.26611 34.375 10.4167 34.375M39.5834 34.375H42.1875C43.6258 34.375 44.7917 35.5409 44.7917 36.9792C44.7917 38.4174 43.6258 39.5833 42.1875 39.5833H7.81254C6.3743 39.5833 5.20837 38.4174 5.20837 36.9792C5.20837 35.5409 6.3743 34.375 7.81254 34.375H10.4167" stroke="#512FFF" stroke-width="3" stroke-linecap="round" stroke-linejoin="round"/>
</svg>
