<svg width="50" height="50" viewBox="0 0 50 50" fill="none" xmlns="http://www.w3.org/2000/svg">
<path d="M6.25004 39.5833H2.08337V37.5C2.08337 33.617 4.73915 30.3543 8.33337 29.4292M12.5 22.5611C10.0726 21.7031 8.33337 19.388 8.33337 16.6667C8.33337 13.9454 10.0726 11.6303 12.5 10.7723M43.75 39.5833H47.9167V37.5C47.9167 33.617 45.2609 30.3543 41.6667 29.4292M37.5 10.7723C39.9275 11.6303 41.6667 13.9454 41.6667 16.6667C41.6667 19.388 39.9275 21.7031 37.5 22.5611M20.8334 29.1667H29.1667C33.7691 29.1667 37.5 32.8976 37.5 37.5V39.5834H12.5V37.5C12.5 32.8976 16.231 29.1667 20.8334 29.1667ZM31.25 16.6667C31.25 20.1185 28.4518 22.9167 25 22.9167C21.5483 22.9167 18.75 20.1185 18.75 16.6667C18.75 13.2149 21.5483 10.4167 25 10.4167C28.4518 10.4167 31.25 13.2149 31.25 16.6667Z" stroke="#512FFF" stroke-width="3" stroke-linecap="round" stroke-linejoin="round"/>
</svg>
