<svg width="55" height="55" viewBox="0 0 55 55" fill="none" xmlns="http://www.w3.org/2000/svg">
<path d="M39.9518 1H15.0482C7.28959 1 1 7.28959 1 15.0482V39.9518C1 47.7104 7.28959 54 15.0482 54H39.9518C47.7104 54 54 47.7104 54 39.9518V15.0482C54 7.28959 47.7104 1 39.9518 1Z" fill="white" stroke="#512FFF" stroke-width="2"/>
<path d="M27 8.5C23.1544 8.5 19.4662 10.0277 16.747 12.747C14.0277 15.4662 12.5 19.1544 12.5 23C12.5 24.4807 12.629 25.6693 12.9864 26.8754C13.3449 28.0853 13.9405 29.3372 14.902 30.9355C16.1429 32.9985 17.9617 35.5899 20.6071 39.3588C22.0878 41.4685 23.8276 43.9471 25.8699 46.9086C25.9964 47.0909 26.1652 47.24 26.3618 47.3429C26.5587 47.4461 26.7777 47.5 27 47.5C27.2223 47.5 27.4413 47.4461 27.6382 47.3429C27.835 47.2399 28.0039 47.0907 28.1305 46.9081L27 8.5ZM27 8.5C30.8456 8.5 34.5338 10.0277 37.253 12.747C39.9723 15.4662 41.5 19.1544 41.5 23C41.5 24.4807 41.3712 25.6694 41.014 26.8755M27 8.5L41.014 26.8755M41.014 26.8755C40.6557 28.0854 40.0604 29.3372 39.0991 30.9356M41.014 26.8755L39.0991 30.9356M39.0991 30.9356C37.8565 33.0019 36.0338 35.5984 33.381 39.3773M39.0991 30.9356L33.381 39.3773M33.381 39.3773C31.903 41.4828 30.1673 43.9553 28.1307 46.9077L33.381 39.3773ZM27 28.4997H27.0006C28.4585 28.498 29.8562 27.9181 30.8871 26.8871C31.9181 25.8562 32.498 24.4585 32.4997 23.0006V23C32.4997 21.9123 32.1772 20.8489 31.5729 19.9445C30.9686 19.0401 30.1096 18.3352 29.1047 17.9189C28.0997 17.5026 26.9939 17.3937 25.9271 17.6059C24.8602 17.8181 23.8802 18.3419 23.1111 19.1111C22.3419 19.8802 21.8181 20.8602 21.6059 21.9271C21.3937 22.9939 21.5026 24.0997 21.9189 25.1047C22.3352 26.1096 23.0401 26.9686 23.9445 27.5729C24.8489 28.1772 25.9123 28.4997 27 28.4997ZM26.5887 45.3097L27 45.9044L39.4997 23L39.9997 23.0014C39.9997 23.0011 39.9997 23.0009 39.9997 23.0007C40.0043 21.2925 39.6701 19.6004 39.0164 18.0223C38.3627 16.4442 37.4025 15.0114 36.1913 13.8069C34.3733 11.9892 32.0572 10.7514 29.5357 10.2499C27.014 9.74843 24.4003 10.0059 22.025 10.9899C19.6496 11.9738 17.6194 13.6401 16.191 15.7778C14.7626 17.9156 14.0002 20.4289 14.0003 23C14.0003 24.2886 14.1037 25.3637 14.4441 26.4976C14.7829 27.6262 15.3487 28.7874 16.2416 30.2596C17.4032 32.1747 19.152 34.6682 21.7431 38.3626C23.1111 40.313 24.7138 42.5982 26.5887 45.3097ZM23.111 17.1797C24.2621 16.4106 25.6154 16 26.9999 16C28.8558 16.0022 30.635 16.7404 31.9473 18.0527C33.2597 19.3651 33.998 21.1445 34 23.0006C33.9999 24.3848 33.5894 25.738 32.8203 26.889C32.0511 28.0401 30.9579 28.9373 29.6788 29.4672C28.3997 29.997 26.9922 30.1356 25.6344 29.8655C24.2765 29.5954 23.0292 28.9287 22.0503 27.9497C21.0713 26.9708 20.4046 25.7235 20.1345 24.3656C19.8644 23.0078 20.003 21.6003 20.5328 20.3212C21.0627 19.0421 21.9599 17.9489 23.111 17.1797Z" fill="#0C0B0E" stroke="#0C0B0E"/>
</svg>
