<svg width="55" height="55" viewBox="0 0 55 55" fill="none" xmlns="http://www.w3.org/2000/svg">
<path d="M39.9518 1H15.0482C7.28959 1 1 7.28959 1 15.0482V39.9518C1 47.7104 7.28959 54 15.0482 54H39.9518C47.7104 54 54 47.7104 54 39.9518V15.0482C54 7.28959 47.7104 1 39.9518 1Z" fill="white" stroke="#512FFF" stroke-width="2"/>
<path d="M43.2321 12.1346L43.2347 12.1352C43.5949 12.2165 43.9166 12.4182 44.1466 12.707C44.3767 12.9958 44.5013 13.3545 44.5 13.7237V13.7255C44.5002 17.7669 43.7043 21.7687 42.1577 25.5024C40.6112 29.2361 38.3442 32.6286 35.4864 35.4862C32.6286 38.3437 29.2359 40.6103 25.5021 42.1565C21.7682 43.7027 17.7663 44.4982 13.725 44.4976H13.7242C13.3532 44.4982 12.9932 44.3725 12.703 44.1414C12.4129 43.9102 12.21 43.5872 12.1277 43.2256L12.1274 43.2243L10.5417 36.3403L10.5417 36.3403C10.4558 35.9673 10.5035 35.5759 10.6767 35.2345C10.8499 34.8932 11.1374 34.6235 11.4891 34.4725C11.4891 34.4725 11.4892 34.4725 11.4892 34.4725L18.8984 31.2941C18.8987 31.294 18.899 31.2939 18.8993 31.2938C19.2256 31.1549 19.588 31.1252 19.9325 31.2092C20.2771 31.2932 20.5852 31.4864 20.8109 31.7599C20.8111 31.7601 20.8113 31.7604 20.8115 31.7606L23.825 35.4451L24.0764 35.7525L24.4327 35.5772C29.2734 33.1964 33.1898 29.28 35.5707 24.4392L35.7459 24.083L35.4386 23.8316L31.7556 20.818C31.7554 20.8179 31.7552 20.8177 31.7549 20.8175C31.4814 20.5918 31.2882 20.2836 31.2042 19.9391C31.1201 19.5944 31.1498 19.2317 31.2889 18.9053C31.289 18.9052 31.289 18.9051 31.2891 18.9049L34.4668 11.4906C34.4669 11.4904 34.4669 11.4902 34.467 11.49C34.6197 11.1378 34.8908 10.8502 35.2334 10.6769C35.5759 10.5037 35.9684 10.4558 36.3425 10.5416C36.3427 10.5416 36.3429 10.5416 36.343 10.5417L43.2321 12.1346ZM13.2791 42.9249L13.3687 43.3128L13.7668 43.3124C21.5982 43.304 29.1065 40.1894 34.6443 34.6519C40.1821 29.1144 43.2971 21.6063 43.3059 13.7749L43.3063 13.3766L42.9183 13.2871L36.1075 11.7154L35.7001 11.6214L35.5355 12.0058L32.3907 19.3473L32.2425 19.6933L32.5339 19.9314L37.2075 23.7497C35.6179 27.0692 33.9069 29.6365 31.7757 31.7692C29.6443 33.9022 27.0735 35.6197 23.7409 37.2162L19.9227 32.5427L19.6846 32.2512L19.3386 32.3994L11.997 35.5442L11.6126 35.7089L11.7067 36.1163L13.2791 42.9249Z" fill="#0C0B0E" stroke="#0C0B0E"/>
</svg>
