<svg width="40" height="41" viewBox="0 0 40 41" fill="none" xmlns="http://www.w3.org/2000/svg">
<path d="M11.7643 1.42859C9.69068 1.52527 8.29302 1.85385 7.0787 2.32396L7.07452 2.32558L7.07451 2.32556C5.80884 2.80255 4.6624 3.54977 3.71505 4.51516L3.70841 4.52193L3.70835 4.52186C2.74226 5.46971 1.99443 6.61679 1.51694 7.88318L1.51539 7.8873L1.51537 7.88729C1.0443 9.10407 0.713686 10.5046 0.619489 12.5875C0.523634 14.7072 0.5 15.3784 0.5 20.8086C0.5 26.2372 0.521825 26.9082 0.619468 29.0328L11.7643 1.42859ZM11.7643 1.42859H11.766L11.7775 1.42806C13.8986 1.33042 14.5695 1.30859 20 1.30859C25.4302 1.30859 26.1014 1.33223 28.221 1.42808C30.304 1.52228 31.7045 1.85289 32.9213 2.32398L32.9251 2.3254C34.1902 2.80348 35.3378 3.55078 36.2869 4.51713L36.2868 4.51719L36.2936 4.52382C37.2596 5.4708 38.0048 6.61622 38.4811 7.88276L38.4811 7.88277L38.483 7.88787C38.9556 9.10405 39.2845 10.5044 39.3805 12.5844C39.4782 14.709 39.5 15.38 39.5 20.8086C39.5 26.2387 39.4764 26.91 39.3805 29.0315C39.2863 31.1108 38.9557 32.511 38.483 33.7275L38.483 33.7275L38.4811 33.7326C38.0048 34.9993 37.2582 36.147 36.2931 37.0957L36.2931 37.0956L36.2869 37.1019C35.3381 38.068 34.1906 38.8134 32.9256 39.2897L32.9207 39.2916C31.7046 39.7642 30.3042 40.0931 28.2243 40.1891C28.2243 40.1891 28.2242 40.1891 28.2242 40.1891L28.2473 40.6886M11.7643 1.42859L0.619473 29.0329L0.12 29.0559C0.218182 31.1831 0.556364 32.6377 1.04909 33.9104C1.55148 35.2448 2.33887 36.4534 3.35636 37.4522C4.35604 38.4691 5.56531 39.2558 6.9 39.7577C8.17273 40.2522 9.62727 40.5922 11.7545 40.6886C13.8873 40.785 14.5673 40.8086 20 40.8086C25.4327 40.8086 26.1127 40.7868 28.2473 40.6886M28.2473 40.6886C30.3745 40.5904 31.8291 40.2522 33.1018 39.7577M28.2473 40.6886L33.1018 39.7577M33.1018 39.7577C34.4345 39.2559 35.6436 38.4704 36.6436 37.4522L33.1018 39.7577ZM8.02202 4.75184L8.0223 4.75173C8.77775 4.45772 9.88943 4.12072 11.8954 4.02911M8.02202 4.75184L11.9182 4.52859M8.02202 4.75184C7.0278 5.13944 6.302 5.60732 5.55253 6.35624C4.83776 7.05232 4.28738 7.89917 3.94153 8.835C3.64791 9.59038 3.31196 10.7017 3.22052 12.704M8.02202 4.75184L4.40909 9.01223C4.13455 9.71768 3.80909 10.7759 3.72 12.7268M11.8954 4.02911L11.9182 4.52859M11.8954 4.02911C11.8954 4.02911 11.8954 4.02911 11.8954 4.02911L11.9182 4.52859M11.8954 4.02911C14.0161 3.93222 14.6579 3.91223 20 3.91223C25.3421 3.91223 25.9839 3.93222 28.1046 4.02911C30.1069 4.12055 31.2182 4.45651 31.9736 4.75013M11.9182 4.52859C14.0273 4.43223 14.66 4.41223 20 4.41223C25.34 4.41223 25.9727 4.43223 28.0818 4.52859C30.0327 4.61768 31.0909 4.94314 31.7964 5.21768M31.9736 4.75013C31.9722 4.74961 31.9708 4.7491 31.9694 4.74858L31.7964 5.21768M31.9736 4.75013C32.9094 5.09604 33.7563 5.64641 34.4524 6.36114M31.9736 4.75013C31.975 4.75066 31.9763 4.7512 31.9777 4.75173L31.7964 5.21768M31.7964 5.21768L34.4524 6.36114M34.4524 6.36114C34.4516 6.36032 34.4507 6.3595 34.4499 6.35868L34.0964 6.71223L34.4547 6.36355C34.4539 6.36275 34.4532 6.36194 34.4524 6.36114ZM34.4524 6.36114C35.2013 7.11061 35.6692 7.83641 36.0568 8.83061L36.0569 8.83089C36.3509 9.58634 36.6879 10.698 36.7795 12.704C36.8764 14.8247 36.8964 15.4665 36.8964 20.8086C36.8964 26.1507 36.8764 26.7925 36.7795 28.9132C36.688 30.9155 36.3521 32.0267 36.0585 32.7821M34.4524 6.36114L35.5909 9.01223C35.8655 9.71768 36.1909 10.7759 36.28 12.7268C36.3764 14.8359 36.3964 15.4686 36.3964 20.8086C36.3964 26.1486 36.3764 26.7813 36.28 28.8904C36.1909 30.8413 35.8655 31.8995 35.5909 32.605M36.0585 32.7821C36.059 32.7807 36.0595 32.7794 36.06 32.778L35.5909 32.605M36.0585 32.7821C36.058 32.7835 36.0574 32.7849 36.0569 32.7863L35.5909 32.605M36.0585 32.7821C35.7131 33.7165 35.1625 34.5648 34.4475 35.2609M35.5909 32.605C35.2709 33.4722 34.76 34.2595 34.0964 34.905M34.0964 34.905L34.4499 35.2585C34.4491 35.2593 34.4483 35.2601 34.4475 35.2609M34.0964 34.905C33.3964 35.605 32.7291 36.0359 31.7964 36.3995C31.0909 36.674 30.0327 36.9995 28.0818 37.0886C25.9727 37.185 25.3418 37.205 20 37.205C14.6582 37.205 14.0273 37.185 11.9182 37.0886C9.96727 36.9995 8.90909 36.674 8.20364 36.3995M34.0964 34.905L34.445 35.2634C34.4458 35.2626 34.4467 35.2618 34.4475 35.2609M34.4475 35.2609C33.698 36.0099 32.9722 36.4777 31.978 36.8654L31.9777 36.8655C31.2223 37.1595 30.1106 37.4965 28.1046 37.5881C25.9839 37.685 25.3439 37.705 20 37.705C14.6561 37.705 14.0161 37.685 11.8954 37.5881C9.89313 37.4966 8.78185 37.1607 8.02648 36.8671M8.02648 36.8671C8.02784 36.8676 8.0292 36.8681 8.03056 36.8686L8.20364 36.3995M8.02648 36.8671C8.02508 36.8665 8.02369 36.866 8.0223 36.8655L8.20364 36.3995M8.02648 36.8671C7.09317 36.522 6.24574 35.9723 5.55004 35.2585M8.20364 36.3995C7.33636 36.0795 6.54909 35.5686 5.90364 34.905M5.90364 34.905L5.55503 35.2634C5.55336 35.2618 5.5517 35.2602 5.55004 35.2585M5.90364 34.905C5.24 34.2595 4.72909 33.4722 4.40909 32.605M5.90364 34.905L5.54521 35.2536C5.54682 35.2552 5.54843 35.2569 5.55004 35.2585M5.55004 35.2585C4.83627 34.5629 4.2866 33.7155 3.94155 32.7822M4.40909 32.605L3.94313 32.7863C3.9426 32.7849 3.94208 32.7836 3.94155 32.7822M4.40909 32.605C4.13455 31.8995 3.80909 30.8413 3.72 28.8904C3.62364 26.7813 3.60364 26.1486 3.60364 20.8086C3.60364 15.4686 3.62364 14.8359 3.72 12.7268M4.40909 32.605L3.94 32.778C3.94052 32.7794 3.94103 32.7808 3.94155 32.7822M3.94155 32.7822C3.64792 32.0268 3.31196 30.9156 3.22052 28.9132C3.12363 26.7925 3.10364 26.1507 3.10364 20.8086C3.10364 15.4665 3.12363 14.8247 3.22052 12.704M3.72 12.7268L3.22052 12.704M3.72 12.7268L3.22052 12.704C3.22052 12.704 3.22052 12.704 3.22052 12.704M22.0846 27.6794C20.4948 28.1601 18.7874 28.0741 17.2539 27.4359L22.0846 27.6794ZM22.0846 27.6794C23.6746 27.1986 25.0485 26.1807 25.9714 24.7996M22.0846 27.6794L25.9714 24.7996M25.9714 24.7996C26.8943 23.4184 27.3091 21.7597 27.1449 20.1066M25.9714 24.7996L27.1449 20.1066M27.1449 20.1066C26.9807 18.4539 26.2479 16.9093 25.0716 15.7367M27.1449 20.1066L25.0716 15.7367M25.0716 15.7367C24.3216 14.9872 23.4147 14.4132 22.4162 14.0562C21.4177 13.6992 20.3525 13.568 19.2973 13.6721C18.242 13.7762 17.223 14.113 16.3135 14.6582C15.404 15.2034 14.6267 15.9434 14.0376 16.8251C13.4484 17.7067 13.0621 18.708 12.9064 19.7569C12.7506 20.8058 12.8294 21.8762 13.137 22.8909C13.4446 23.9057 13.9734 24.8397 14.6853 25.6256C15.3971 26.4114 16.2742 27.0296 17.2536 27.4358L25.0716 15.7367ZM13.0845 13.8931C13.9926 12.9849 15.0708 12.2645 16.2573 11.773C17.4439 11.2815 18.7157 11.0285 20 11.0285C21.2843 11.0285 22.5561 11.2815 23.7427 11.773C24.9292 12.2645 26.0074 12.9849 26.9155 13.8931C27.8237 14.8012 28.5441 15.8794 29.0356 17.0659C29.5271 18.2525 29.78 19.5243 29.78 20.8086C29.78 22.0929 29.5271 23.3647 29.0356 24.5513C28.5441 25.7378 27.8237 26.816 26.9155 27.7241C25.0814 29.5582 22.5938 30.5886 20 30.5886C17.4062 30.5886 14.9186 29.5582 13.0845 27.7241C11.2503 25.89 10.22 23.4024 10.22 20.8086C10.22 18.2148 11.2503 15.7272 13.0845 13.8931ZM32.6593 11.069C32.5552 11.3054 32.4048 11.5185 32.2169 11.6958C31.8515 12.0405 31.3661 12.2292 30.8638 12.2219C30.3615 12.2146 29.8818 12.0118 29.5266 11.6566C29.1713 11.3014 28.9685 10.8217 28.9612 10.3194C28.9539 9.81705 29.1426 9.33166 29.4873 8.96624C29.6646 8.77834 29.8777 8.62791 30.1142 8.52387C30.3506 8.41983 30.6055 8.36428 30.8638 8.36051C31.1221 8.35674 31.3785 8.40484 31.6178 8.50195C31.8572 8.59906 32.0746 8.7432 32.2573 8.92585C32.4399 9.10851 32.5841 9.32595 32.6812 9.56531C32.7783 9.80467 32.8264 10.0611 32.8226 10.3194C32.8189 10.5776 32.7633 10.8325 32.6593 11.069Z" fill="white" stroke="white"/>
</svg>
