<svg width="40" height="41" viewBox="0 0 40 41" fill="none" xmlns="http://www.w3.org/2000/svg">
<path d="M18.2098 23.9908C17.9573 25.3496 17.6827 26.6413 17.2555 27.7587C16.9584 28.5359 16.5944 29.2097 16.1281 29.754C16.0249 28.1492 16.2132 26.6941 16.5086 25.2932C16.6771 24.4939 16.8794 23.7168 17.0832 22.9341C17.0948 22.8896 17.1064 22.8452 17.118 22.8007C17.3323 21.9769 17.5461 21.1455 17.7124 20.2992L17.7486 20.1153L17.6549 19.953C17.1969 19.1589 17.2038 17.8773 17.625 16.8897C17.8319 16.4045 18.1154 16.0481 18.4269 15.8598C18.7166 15.6847 19.0679 15.63 19.5128 15.8117L19.5134 15.8119C19.7712 15.9168 19.9048 16.0581 19.9823 16.2162C20.0667 16.3884 20.1062 16.6264 20.0878 16.9486C20.0527 17.5611 19.8252 18.2997 19.5731 19.1176C19.5523 19.1854 19.5312 19.2537 19.5101 19.3226C19.2501 20.1697 18.9705 21.1202 19.0273 21.9167C19.057 22.3324 19.1796 22.7461 19.4739 23.0881C19.7689 23.4308 20.1911 23.649 20.7206 23.7584C21.8569 23.9942 22.8255 23.5922 23.5616 22.8618C24.2831 22.1458 24.7906 21.1116 25.0875 20.0127C25.3858 18.9087 25.4831 17.6971 25.3491 16.5908C25.216 15.493 24.8475 14.4433 24.1592 13.7233L24.159 13.7231C22.2739 11.7533 19.5502 11.7618 17.4625 12.8965C15.3733 14.032 13.809 16.35 14.2458 19.1301L18.2098 23.9908ZM18.2098 23.9908V23.1316L18.9752 23.611C19.2624 23.7909 19.4945 23.9566 19.701 24.104C20.2487 24.4949 20.6165 24.7575 21.3555 24.8164L21.3556 24.8164C23.3134 24.9725 24.8509 23.9799 25.8545 22.3801C26.866 20.7676 27.3095 18.5647 27.0263 16.4372C26.5456 12.853 23.0602 10.9202 19.1414 11.3715L18.2098 23.9908ZM13.0055 17.7922C13.1294 14.2428 16.1131 11.7224 19.1412 11.3715L14.2458 19.1302C14.3068 19.5199 14.4498 19.8332 14.5926 20.0945C14.6599 20.2176 14.7169 20.3138 14.7682 20.4001C14.8398 20.5208 14.9 20.6222 14.9606 20.7511C15.046 20.9327 15.0909 21.0968 15.0826 21.288C15.077 21.4173 15.0462 21.5775 14.9663 21.7801C14.2378 21.5321 13.7695 21.1002 13.4695 20.5349C13.1066 19.8512 12.9659 18.9263 13.0055 17.7922L13.0055 17.7922ZM12.5058 17.7748L12.5058 17.7748L12.5058 17.7748Z" fill="white" stroke="white"/>
<path d="M8 4.30859C6.80653 4.30859 5.66193 4.7827 4.81802 5.62661C3.97411 6.47053 3.5 7.61512 3.5 8.80859V32.8086C3.5 34.0021 3.97411 35.1467 4.81802 35.9906C5.66193 36.8345 6.80653 37.3086 8 37.3086H32C33.1935 37.3086 34.3381 36.8345 35.182 35.9906C36.0259 35.1467 36.5 34.0021 36.5 32.8086V8.80859C36.5 7.61512 36.0259 6.47053 35.182 5.62661C34.3381 4.7827 33.1935 4.30859 32 4.30859H8ZM8 1.30859H32C33.9891 1.30859 35.8968 2.09877 37.3033 3.50529C38.7098 4.91182 39.5 6.81947 39.5 8.80859V32.8086C39.5 34.7977 38.7098 36.7054 37.3033 38.1119C35.8968 39.5184 33.9891 40.3086 32 40.3086H8C6.01088 40.3086 4.10322 39.5184 2.6967 38.1119C1.29018 36.7054 0.5 34.7977 0.5 32.8086V8.80859C0.5 6.81947 1.29018 4.91182 2.6967 3.50529C4.10322 2.09877 6.01088 1.30859 8 1.30859Z" fill="white" stroke="white"/>
</svg>
