<svg width="362" height="120" viewBox="0 0 362 120" fill="none" xmlns="http://www.w3.org/2000/svg">
<g filter="url(#filter0_d_957_1659)">
<path d="M281.155 3.00584C281.155 9.74713 281.171 16.4819 281.202 23.2103C274.085 23.0562 266.966 22.9248 259.845 22.8161V26.1638C256.909 23.8744 253.313 22.6452 249.621 22.6685C238.961 22.5274 228.301 22.4119 217.641 22.3219V25.0637C214.777 23.1876 211.438 22.2139 208.038 22.2637C197.377 22.1802 186.739 22.1255 176.123 22.0996V22.2054C169.557 22.1666 162.995 22.1442 156.436 22.1384V25.8909C153.389 23.4345 149.587 22.1661 145.71 22.3122C135.928 22.3633 126.142 22.4339 116.353 22.5239V25.7851C113.391 23.6793 109.838 22.6186 106.233 22.7637C96.1243 22.8854 86.0129 23.0426 75.8986 23.2355V19.3869C75.9402 17.1837 75.5153 14.9974 74.6532 12.978C73.791 10.9586 72.512 9.15383 70.9038 7.68753C67.2102 4.55122 62.5316 2.88824 57.7325 3.00584H6C10.7157 9.62479 15.4188 16.09 20.1092 22.4015L20.0247 110.252C28.7664 106.724 37.5172 103.389 46.2773 100.245V86.7752C48.6851 91.4446 51.0867 96.069 53.4819 100.648C60.3422 99.8018 67.2082 99.025 74.0799 98.3182C77.2592 97.9914 80.4384 97.6706 83.6177 97.3561C88.1891 96.9198 92.7637 96.5188 97.3415 96.1531V96.2007C103.612 95.6492 109.883 95.1618 116.154 94.7385V94.8152C126.814 94.1738 137.474 93.6734 148.134 93.3142C150.994 93.266 153.803 92.5346 156.336 91.1782V93.1025C162.918 92.9485 169.502 92.8556 176.089 92.8239H180.321C186.692 92.8239 193.06 92.875 199.425 92.9773C205.521 93.0478 211.616 93.1699 217.711 93.3433V93.42C225.65 93.6958 233.582 94.0647 241.508 94.5269V76.0089L252.797 71.0932L252.929 71.0349C253.174 70.9097 253.738 70.6602 254.632 70.2747L256.663 69.3893C256.964 69.2446 257.51 68.9951 258.695 68.331C259.129 68.1159 259.553 67.8784 259.965 67.6193C259.965 77.0157 259.99 86.4121 260.04 95.8085C273.415 96.8285 286.778 98.1114 300.128 99.6571C300.881 97.1269 301.624 94.5968 302.376 92.0569V98.6978C311.286 101.68 320.182 104.852 329.061 108.213C329.024 80.8889 328.983 53.5688 328.939 26.2521L338.777 26.5793C344.515 18.9416 350.256 11.0909 356 3.0272L281.155 3.00584ZM46.3893 54.8432L46.4453 25.8074L48.825 25.7405L49.0509 53.2471L46.3893 54.8432ZM67.2721 68.5815C67.9584 68.096 68.8051 67.4659 69.8587 66.6571C71.6422 65.3617 73.1316 63.688 74.2251 61.7502C74.2251 68.1064 74.2251 74.4625 74.2251 80.8187C71.8907 76.7338 69.5727 72.6547 67.2712 68.5815H67.2721ZM283.799 43.2021C288.665 43.4008 293.534 43.6189 298.406 43.8565C299.66 39.4952 300.93 35.1145 302.215 30.7144C302.215 37.7696 302.231 44.8248 302.262 51.88C296.117 51.4502 289.968 51.0431 283.817 50.6586C283.81 48.1569 283.804 45.6556 283.798 43.1545L283.799 43.2021ZM283.883 78.0778V70.564C287.646 70.823 291.377 71.1019 295.076 71.401C297.484 67.3154 299.892 63.1978 302.3 59.0482C302.3 65.9176 302.316 72.7871 302.347 79.6565C296.196 79.0604 290.041 78.5183 283.883 78.0303V78.0778Z" fill="white"/>
</g>
<path d="M25.9778 20.7044C23.1498 16.8557 20.3281 12.9433 17.5127 8.96716L57.733 8.92833C61.026 8.83536 64.2427 9.95126 66.8009 12.0741C67.8823 13.0746 68.7358 14.3057 69.3014 15.6805C69.8669 17.0553 70.1306 18.5402 70.0738 20.0306C70.0738 31.9733 70.0422 43.9096 69.9789 55.8393C70.0025 57.1775 69.7593 58.5065 69.2642 59.7453C68.6154 61.0899 67.6446 62.2449 66.4421 63.1027C65.0686 64.1707 64.0909 64.892 63.4606 65.3056C62.8303 65.7192 61.5793 66.4707 59.6134 67.6436C64.4861 76.4244 69.3553 85.0512 74.221 93.5239C68.5776 94.1654 62.9338 94.8356 57.2897 95.5346C53.8283 88.9325 50.3794 82.2333 46.9433 75.437C44.8303 76.771 42.7202 78.1277 40.6129 79.507V97.7289C35.7402 99.5762 30.8742 101.5 26.0149 103.502L25.9778 20.7044ZM40.5759 65.3658L40.9556 65.1833C42.3244 64.521 43.6532 63.7753 44.9347 62.9502C48.575 60.6987 50.9452 59.2559 52.0453 58.5812C52.9087 58.1122 53.629 57.4087 54.1269 56.5481C54.6248 55.6876 54.881 54.7032 54.8673 53.7034C54.7794 43.6015 54.6977 33.4899 54.6224 23.3685C54.6395 22.9779 54.5734 22.588 54.4289 22.226C54.2843 21.8639 54.0647 21.5382 53.7852 21.2714C53.1484 20.7169 52.3242 20.4404 51.49 20.5015L40.6072 20.7131C40.6009 35.6003 40.5914 50.4839 40.5787 65.3639L40.5759 65.3658Z" fill="#0C0B0E"/>
<path d="M57.7306 9.39048C60.9014 9.29415 64.0012 10.3618 66.4691 12.4003C67.5085 13.3616 68.3281 14.5453 68.8695 15.8673C69.4109 17.1893 69.6608 18.617 69.6016 20.049C69.6016 31.9918 69.5699 43.9338 69.5066 55.8753C69.5335 57.1571 69.3031 58.4309 68.8298 59.6181C68.2076 60.8989 67.275 61.9953 66.1208 62.8027C64.7757 63.8512 63.7971 64.5726 63.1782 64.9862C62.5593 65.3998 61.1469 66.2367 58.9456 67.5455C63.774 76.2558 68.5992 84.8088 73.4212 93.2045C68.1227 93.7948 62.8301 94.4362 57.5436 95.1288C54.0631 88.462 50.5767 81.7048 47.0842 74.8574C44.7516 76.339 42.4191 77.84 40.0865 79.3604V97.5085C35.5214 99.2406 30.9651 101.033 26.4178 102.886L26.4738 20.6083C23.7982 16.959 21.1179 13.2615 18.4329 9.51574L57.7306 9.39048V9.39048ZM40.1226 66.1542C41.0063 65.529 41.5236 65.596 45.1734 63.326C48.8231 61.056 51.1459 59.6366 52.266 58.9569C53.205 58.4498 53.9906 57.6896 54.5377 56.7586C55.0848 55.8277 55.3726 54.7614 55.3699 53.6752C55.2819 43.5733 55.2003 33.4682 55.125 23.3598C55.1467 22.9119 55.0739 22.4644 54.9116 22.0478C54.7493 21.6311 54.5013 21.2551 54.1843 20.9452C53.4582 20.306 52.5155 19.9845 51.5597 20.05L40.2071 20.2617C40.2071 35.5592 40.1852 50.8596 40.1416 66.163L40.1226 66.1542ZM57.7496 8.43706H16.5535L17.6441 9.9672C20.2652 13.6359 22.8863 17.2535 25.5075 20.8199V104.179L26.6551 103.707C31.2075 101.853 35.7638 100.057 40.3238 98.3192L41.0386 98.0406V79.7391C42.9199 78.5177 44.8013 77.3118 46.6826 76.1118C50.0188 82.6861 53.3579 89.1545 56.6998 95.5172L56.9541 96.0026L57.5465 95.9259C62.833 95.2528 68.1223 94.6113 73.4146 94.0016L74.9476 93.8375L74.2613 92.6346C69.5784 84.4635 64.8912 76.1639 60.1995 67.7358C61.9774 66.6775 63.1155 65.994 63.6708 65.6289C64.2261 65.2639 65.2978 64.4639 66.6903 63.3959C67.9571 62.5141 68.9859 61.3196 69.6813 59.923C70.2025 58.6335 70.4588 57.2481 70.434 55.8529C70.434 43.9232 70.4657 31.9934 70.5289 20.0636C70.5871 18.5198 70.3142 16.9817 69.7293 15.5574C69.1443 14.133 68.2616 12.8569 67.1431 11.8187C64.4897 9.61445 61.1544 8.45112 57.7373 8.53803L57.7496 8.43706ZM41.1126 21.1665L51.5256 20.9646C52.237 20.903 52.9435 21.1312 53.4914 21.5996C53.7257 21.8276 53.9092 22.1046 54.0292 22.4117C54.1493 22.7188 54.2032 23.0488 54.1872 23.3792C54.2751 33.507 54.3568 43.6284 54.4321 53.7432C54.4415 54.6616 54.2011 55.5646 53.7376 56.3513C53.2741 57.1379 52.6058 57.7772 51.8075 58.1977C50.6883 58.8899 48.2954 60.3434 44.7064 62.5755C43.5213 63.3272 42.3 64.0174 41.0471 64.6435C41.0471 50.1544 41.069 35.6621 41.1126 21.1665Z" fill="white"/>
<path d="M103.194 70.9359C99.4979 71.1573 95.7903 71.4078 92.095 71.6573L92.038 91.7365C88.0184 92.1022 84 92.4935 79.9829 92.9103L80.149 29.1377C88.8338 28.9435 97.5125 28.7768 106.185 28.6377C108.682 28.478 111.148 29.2697 113.108 30.8601C113.975 31.6055 114.664 32.5429 115.125 33.6013C115.585 34.6596 115.804 35.8112 115.766 36.969C115.716 54.5882 115.672 72.2042 115.634 89.817C111.495 90.1245 107.36 90.4452 103.227 90.7792C103.212 84.1693 103.201 77.5549 103.194 70.9359ZM103.194 62.1425V39.5904C103.208 39.3029 103.156 39.0161 103.044 38.7523C102.931 38.4886 102.76 38.255 102.545 38.07C102.07 37.6722 101.463 37.4789 100.852 37.5311L94.5401 37.7136C93.9017 37.698 93.2807 37.928 92.8002 38.3583C92.5959 38.5653 92.4354 38.813 92.3286 39.0861C92.2218 39.3591 92.171 39.6518 92.1794 39.9458L92.1234 62.8046C95.8172 62.5548 99.5137 62.3334 103.213 62.1406L103.194 62.1425Z" fill="#0C0B0E"/>
<path d="M80.6185 29.5299C89.1406 29.3357 97.6624 29.169 106.184 29.0299C108.558 28.8745 110.904 29.6252 112.769 31.1367C113.589 31.8405 114.242 32.7258 114.679 33.7257C115.116 34.7257 115.325 35.8141 115.29 36.9087V37.7942C115.252 52.8671 115.218 67.94 115.186 83.0129V89.3918C111.355 89.674 107.533 89.9785 103.721 90.3054V70.4738C99.7136 70.7171 95.7003 70.976 91.6807 71.2505V91.3103C87.975 91.6566 84.2689 92.019 80.5625 92.3977V85.0373C80.6125 70.2854 80.6533 55.5559 80.685 40.8486V29.4988L80.6185 29.5299ZM91.7177 63.1716C95.7247 62.9218 99.738 62.6952 103.758 62.492V39.5234C103.745 39.1867 103.66 38.857 103.508 38.5577C103.357 38.2584 103.143 37.9968 102.882 37.7913C102.309 37.3214 101.584 37.088 100.851 37.1369L94.5398 37.3311C93.7735 37.312 93.0294 37.5946 92.461 38.1204C92.2163 38.3634 92.0231 38.6552 91.8931 38.9777C91.7631 39.3002 91.6993 39.6465 91.7054 39.9952C91.7054 41.0341 91.7054 42.0642 91.7054 43.0934V63.2978L91.7177 63.1716ZM79.7452 28.7532V40.9865C79.7066 55.7442 79.6655 70.4993 79.6218 85.2518V93.4967L80.5625 93.3909C84.2683 93.0064 87.9743 92.6439 91.6807 92.3035L92.6214 92.2171V72.1583C96.0076 71.9207 99.3931 71.6961 102.778 71.4845V91.3423L103.719 91.2559C107.538 90.929 111.36 90.6083 115.184 90.2937L116.125 90.2267V83.0207C116.162 67.9543 116.197 52.8813 116.228 37.802V36.9747C116.266 35.7588 116.032 34.55 115.543 33.441C115.053 32.3321 114.323 31.3522 113.406 30.5765C111.357 28.9016 108.773 28.065 106.154 28.2289C97.6323 28.3635 89.1137 28.5253 80.5986 28.7143H79.6598L79.7452 28.7532ZM92.6546 62.3687V40.038C92.6448 39.8008 92.6841 39.5642 92.77 39.3436C92.8559 39.1231 92.9864 38.9236 93.153 38.7583C93.5365 38.4139 94.0356 38.2347 94.5455 38.2583L100.857 38.0641C101.348 38.0168 101.838 38.1688 102.221 38.4874C102.392 38.6371 102.527 38.8252 102.615 39.0371C102.703 39.249 102.742 39.4789 102.729 39.7088V61.8453C99.3428 62.0182 95.9655 62.2104 92.5796 62.4036L92.6546 62.3687Z" fill="white"/>
<path d="M205.173 68.7999C201.467 68.7294 197.758 68.6779 194.045 68.6456V87.7529C190.006 87.7082 185.971 87.6795 181.94 87.6665V27.824C190.624 27.824 199.306 27.8784 207.985 27.9872C210.501 27.8946 212.965 28.7314 214.927 30.3445C215.79 31.0864 216.479 32.0172 216.943 33.068C217.407 34.1188 217.634 35.2628 217.607 36.4155C217.607 53.7332 217.632 71.022 217.682 88.2821C213.544 88.1604 209.402 88.0578 205.257 87.9743C205.232 81.5857 205.204 75.1943 205.173 68.7999ZM205.173 60.3046C205.135 53.0442 205.1 45.7834 205.069 38.5224C205.073 38.2396 205.016 37.9593 204.903 37.7016C204.789 37.4438 204.621 37.2149 204.41 37.0311C203.93 36.6336 203.325 36.4268 202.708 36.4486H196.396C195.769 36.4014 195.148 36.5973 194.656 36.9971C194.455 37.1854 194.296 37.4164 194.19 37.6739C194.084 37.9314 194.035 38.2094 194.045 38.4884V60.2123C197.751 60.2188 201.457 60.2512 205.163 60.3094L205.173 60.3046Z" fill="#0C0B0E"/>
<path d="M182.43 28.2376C190.952 28.2376 199.477 28.292 208.005 28.4007C210.39 28.3143 212.726 29.1067 214.588 30.6338C215.41 31.3381 216.065 32.2232 216.505 33.2228C216.945 34.2225 217.158 35.311 217.129 36.4068V37.2243C217.129 52.0085 217.15 66.8021 217.194 81.6052V87.8587C213.369 87.7435 209.54 87.6465 205.708 87.5675V83.113L205.628 68.4048C201.602 68.3278 197.579 68.2702 193.559 68.232V87.3393C189.841 87.2882 186.123 87.2626 182.404 87.2626V28.2376H182.43ZM193.55 60.5686C197.566 60.5686 201.592 60.655 205.605 60.7133C205.605 54.1707 205.573 47.622 205.51 41.0671V38.5175C205.514 38.1788 205.445 37.8433 205.307 37.5355C205.168 37.2277 204.965 36.9552 204.711 36.7379C204.14 36.2576 203.418 36.0078 202.68 36.0359L196.368 35.9883C195.616 35.937 194.873 36.18 194.289 36.668C194.045 36.8864 193.85 37.1575 193.72 37.4618C193.59 37.7662 193.527 38.0962 193.537 38.4282V60.5648L193.55 60.5686ZM181.451 27.4104V88.0821H182.392C186.155 88.0821 189.832 88.082 193.547 88.1587H194.488V69.0417C197.874 69.0417 201.27 69.1281 204.665 69.1864C204.665 73.8169 204.69 78.4478 204.74 83.079V88.3607H205.681C209.506 88.4312 213.335 88.5283 217.167 88.652H218.107V81.5712C218.107 66.774 218.082 51.9739 218.032 37.1709V36.3534C218.06 35.1431 217.82 33.9421 217.332 32.8394C216.843 31.7368 216.118 30.7609 215.21 29.9843C213.152 28.2995 210.574 27.4224 207.939 27.5114C199.418 27.4344 190.893 27.3829 182.364 27.357L181.451 27.4104ZM194.478 59.756V38.4447C194.467 38.2196 194.505 37.9947 194.589 37.7866C194.674 37.5784 194.803 37.3923 194.967 37.2418C195.361 36.9231 195.86 36.7715 196.36 36.8185H202.671C203.168 36.7976 203.656 36.9618 204.045 37.2806C204.213 37.4259 204.347 37.6092 204.435 37.8163C204.523 38.0233 204.564 38.2483 204.552 38.4738V41.0234L204.637 59.8511C201.251 59.7939 197.855 59.7541 194.469 59.7162L194.478 59.756Z" fill="white"/>
<path d="M122.052 89.4559L122.155 46.9799V28.257C129.981 28.1671 137.819 28.0998 145.67 28.0551C148.145 27.909 150.585 28.7079 152.518 30.2969C153.36 31.0365 154.034 31.955 154.493 32.9885C154.952 34.022 155.185 35.1455 155.175 36.2806C155.225 41.2516 155.276 46.2255 155.326 51.2024C155.368 52.4554 155.103 53.6992 154.556 54.8213C154.009 55.9433 153.197 56.9082 152.194 57.6287C153.764 58.08 155.176 58.9776 156.267 60.2172C157.453 61.6233 158.062 63.4426 157.97 65.2969C157.914 70.0628 157.854 74.8218 157.792 79.574C157.788 80.7323 157.543 81.8766 157.072 82.9302C156.602 83.9839 155.917 84.9227 155.063 85.6839C153.127 87.3438 150.677 88.2442 148.15 88.2238C139.455 88.5137 130.755 88.9244 122.052 89.4559ZM143.093 79.8352C143.717 79.8414 144.322 79.6158 144.796 79.2002C145.015 79.005 145.188 78.7617 145.302 78.4885C145.416 78.2153 145.468 77.9193 145.455 77.6225V65.1629C145.469 64.8705 145.418 64.5786 145.305 64.3094C145.193 64.0402 145.022 63.8008 144.805 63.6095C144.32 63.2274 143.713 63.0424 143.102 63.0901C140.102 63.1668 137.092 63.2532 134.091 63.3503V80.1769C137.114 80.074 140.114 79.9682 143.093 79.8595V79.8352ZM140.384 54.7539C141.018 54.7851 141.64 54.5686 142.124 54.1481C142.33 53.9585 142.492 53.7248 142.599 53.4637C142.707 53.2025 142.756 52.9204 142.745 52.6373L142.689 38.668C142.594 37.2631 141.823 36.6087 140.252 36.6379L134.166 36.735V54.919L140.384 54.7539Z" fill="#0C0B0E"/>
<path d="M122.635 28.6707C130.31 28.5807 137.986 28.5134 145.661 28.4687C148.013 28.3227 150.333 29.0772 152.17 30.5853C152.973 31.2898 153.616 32.1656 154.053 33.1511C154.49 34.1367 154.711 35.2081 154.701 36.2903C154.751 41.2678 154.801 46.2417 154.852 51.2121C154.895 52.5501 154.575 53.8742 153.928 55.0376C153.28 56.2009 152.33 57.158 151.183 57.8026C152.994 58.1398 154.646 59.0762 155.886 60.4677C157.018 61.7939 157.597 63.5208 157.5 65.2785C157.444 70.0443 157.384 74.8066 157.321 79.5653C157.32 80.6686 157.089 81.759 156.643 82.7636C156.197 83.7682 155.546 84.6638 154.735 85.3907C152.892 86.9715 150.556 87.8247 148.151 87.7957C139.608 88.0843 131.067 88.4821 122.529 88.9889V87.1995C122.529 73.7817 122.56 60.3638 122.624 46.9459V28.661L122.635 28.6707ZM133.635 55.3685L140.36 55.186C141.119 55.2136 141.861 54.9493 142.439 54.4452C142.684 54.2191 142.879 53.941 143.009 53.6304C143.138 53.3197 143.201 52.9839 143.191 52.6461L143.134 38.6768C143.021 37.0311 142.053 36.2136 140.228 36.2427L133.644 36.3486V55.3695L133.635 55.3685ZM133.597 80.6343C136.732 80.4996 139.892 80.3776 143.077 80.2682C143.824 80.2662 144.546 79.9973 145.118 79.508C145.383 79.2685 145.591 78.9712 145.728 78.638C145.864 78.3049 145.926 77.9445 145.908 77.5837V65.1338C145.924 64.786 145.86 64.4391 145.723 64.1203C145.586 63.8015 145.379 63.5194 145.118 63.2959C144.542 62.8323 143.818 62.6058 143.087 62.661C139.951 62.738 136.791 62.8309 133.606 62.9396V80.5945L133.597 80.6343ZM121.695 27.8435V46.9702C121.658 60.401 121.626 73.8286 121.6 87.2529V89.8792L122.541 89.8219C131.084 89.3041 139.627 88.9031 148.17 88.619C150.821 88.6364 153.392 87.6883 155.422 85.9441C156.309 85.1456 157.02 84.1627 157.506 83.0611C157.993 81.9595 158.245 80.7645 158.244 79.5556C158.3 74.7898 158.36 70.0275 158.422 65.2688C158.527 63.3261 157.881 61.4192 156.626 59.958C155.654 58.8333 154.422 57.9766 153.042 57.4666C153.933 56.6973 154.643 55.7315 155.117 54.6417C155.591 53.5519 155.818 52.3664 155.78 51.1742C155.736 46.2097 155.686 41.239 155.629 36.2621C155.634 35.0693 155.384 33.8897 154.897 32.8061C154.409 31.7224 153.696 30.761 152.807 29.9892C150.782 28.315 148.22 27.4713 145.62 27.6221C137.945 27.6732 130.273 27.738 122.604 27.8163L121.695 27.8435ZM134.628 37.1641L140.272 37.0777C141.6 37.0777 142.153 37.5204 142.237 38.7224L142.293 52.6723C142.302 52.9013 142.263 53.1296 142.179 53.342C142.095 53.5543 141.967 53.7457 141.804 53.9034C141.413 54.23 140.916 54.3949 140.412 54.3656L134.622 54.52V37.2049L134.628 37.1641ZM134.581 63.7668C137.403 63.6697 140.276 63.5843 143.124 63.5066C143.614 63.4673 144.101 63.6185 144.488 63.9299C144.664 64.0826 144.802 64.2752 144.892 64.4924C144.982 64.7095 145.02 64.9452 145.005 65.1805V77.6391C145.02 77.88 144.981 78.1212 144.891 78.3445C144.802 78.5678 144.664 78.7674 144.488 78.9284C144.104 79.2591 143.616 79.4367 143.114 79.4284C140.292 79.5255 137.419 79.6304 134.571 79.7556V63.7678L134.581 63.7668Z" fill="white"/>
<path d="M162.206 87.8199L162.263 27.8337H174.491V87.6276L162.206 87.8199Z" fill="#0C0B0E"/>
<path d="M162.732 28.2745H174.019V87.2412C170.256 87.2412 166.478 87.2927 162.684 87.3956L162.74 28.2366L162.732 28.2745ZM161.8 27.4191V28.2366L161.745 87.4024V88.2296H162.685C166.448 88.1525 170.226 88.1011 174.02 88.0752H174.96V27.4774H162.732L161.8 27.4191Z" fill="white"/>
<path d="M223.572 88.5986C223.572 68.4394 223.537 48.2806 223.468 28.1221C232.178 28.2179 240.888 28.3399 249.598 28.4881C252.101 28.4381 254.536 29.324 256.446 30.9795C257.318 31.7627 258.01 32.7323 258.475 33.8197C258.94 34.907 259.166 36.0855 259.136 37.2719L259.192 58.2258C259.195 58.8738 259.122 59.5198 258.976 60.1502C258.806 60.7761 258.501 61.3549 258.082 61.8434C257.688 62.3337 257.358 62.7289 257.076 63.0464C256.592 63.5224 256.037 63.9158 255.43 64.2115C254.687 64.6251 254.141 64.9037 253.821 65.0484L251.828 65.9144L249.9 66.7707L235.593 72.9292V89.1888C231.617 88.9688 227.61 88.772 223.572 88.5986ZM235.612 62.6221L238.434 61.391C240.794 60.3521 242.497 59.6016 244.651 58.5909C245.325 58.3815 245.911 57.9478 246.317 57.3587C246.722 56.7697 246.924 56.0589 246.889 55.3394L246.605 39.2146C246.618 38.9215 246.565 38.6291 246.451 38.3598C246.337 38.0906 246.164 37.8516 245.946 37.6612C245.469 37.2525 244.865 37.0339 244.243 37.0456L235.58 36.8631L235.612 62.6221Z" fill="#0C0B0E"/>
<path d="M249.616 28.9114C251.999 28.8595 254.317 29.7015 256.135 31.2785C256.961 32.023 257.617 32.9439 258.058 33.9763C258.498 35.0087 258.712 36.1274 258.683 37.2534L258.74 58.2074C258.75 58.8359 258.68 59.4631 258.533 60.0734C258.388 60.6366 258.121 61.1594 257.753 61.6036C257.368 62.089 257.038 62.4774 256.756 62.7871C256.305 63.2286 255.788 63.5925 255.223 63.8648C254.48 64.2784 253.953 64.5444 253.652 64.6823L251.659 65.5483C250.634 66.0008 249.985 66.2892 249.712 66.4222L235.18 72.6757V88.7587C231.467 88.5471 227.749 88.361 224.024 88.2005V78.8206L223.947 32.9804V28.5832C232.493 28.6797 241.046 28.8017 249.606 28.9493L249.616 28.9114ZM235.147 63.3832C239.521 61.4589 241.731 60.4968 244.864 59.0443C245.608 58.8058 246.254 58.3231 246.703 57.6709C247.152 57.0187 247.378 56.2334 247.347 55.4364C247.246 50.0486 247.149 44.6672 247.055 39.2923C247.061 38.9458 246.993 38.6022 246.857 38.285C246.721 37.9678 246.519 37.6844 246.266 37.4543C245.696 36.9598 244.971 36.6931 244.225 36.7038L235.091 36.5097L235.147 63.3813V63.3832ZM249.613 28.0628C241.054 27.9217 232.501 27.8062 223.954 27.7162H223.013V32.9406C223.013 48.2161 223.038 63.5004 223.088 78.7934V89.0014H224.029C227.748 89.162 231.463 89.3481 235.175 89.5597L236.116 89.617V73.1864L250.15 67.1542C250.376 67.0484 250.855 66.827 252.106 66.2882L253.987 65.4513H254.072C254.411 65.2969 254.947 65.0182 255.718 64.5949C256.366 64.2775 256.96 63.8553 257.477 63.3444C257.762 63.0269 258.098 62.6133 258.492 62.1327C258.932 61.6002 259.253 60.9764 259.433 60.3045C259.59 59.6334 259.666 58.945 259.659 58.2549L259.602 37.2835C259.633 36.0405 259.396 34.8057 258.909 33.6668C258.421 32.5278 257.694 31.5125 256.78 30.693C254.78 28.9527 252.228 28.0189 249.603 28.0667L249.613 28.0628ZM236.04 37.3281L244.232 37.501C244.735 37.4863 245.225 37.6646 245.606 38.001C245.776 38.1537 245.911 38.3435 246.001 38.5565C246.09 38.7696 246.132 39.0004 246.123 39.2321L246.408 55.3665C246.45 56.0032 246.279 56.6356 245.924 57.16C245.568 57.6844 245.049 58.0698 244.452 58.253H244.404C242.26 59.2152 240.557 60.0006 238.206 61.0434L236.098 62.0055L236.042 37.3573L236.04 37.3281Z" fill="white"/>
<path d="M308.17 95.9026C308.12 70.7537 308.07 45.6048 308.02 20.4558C301.022 20.3341 294.024 20.2218 287.026 20.1189V8.939H344.554C341.638 13.0058 338.727 17.0188 335.821 20.9782L323.114 20.7092L323.227 101.391C318.206 99.5089 313.187 97.6794 308.17 95.9026Z" fill="#0C0B0E"/>
<path d="M343.602 9.45844C340.912 13.1977 338.229 16.8891 335.551 20.5325L322.618 20.2723L322.731 100.78C318.048 98.9907 313.345 97.2654 308.622 95.6046C308.572 70.4045 308.518 45.2073 308.461 20.0131C301.469 19.8979 294.475 19.7888 287.477 19.6859V9.37202L343.612 9.45844H343.602ZM345.493 8.49628H286.517V20.5413H287.458C294.149 20.6442 300.833 20.7597 307.512 20.8879C307.556 45.743 307.609 70.6003 307.672 95.4599V96.1813L308.396 96.4318C313.099 98.1056 317.802 99.8373 322.505 101.627L323.653 102.07V100.896L323.54 21.1966L335.532 21.4665H336.012L336.296 21.0782C338.974 17.4354 341.654 13.7411 344.338 9.99534L345.429 8.46521L345.493 8.49628Z" fill="white"/>
<path d="M265.853 91.3695L265.684 28.8338C275.987 29.0519 286.28 29.3108 296.564 29.6105C295.686 32.6527 294.808 35.6832 293.93 38.702C288.6 38.4839 283.269 38.2819 277.939 38.0962C277.939 44.1507 277.955 50.2085 277.987 56.2695C284.195 56.6928 290.396 57.1514 296.591 57.6453C294.905 60.5379 293.218 63.4241 291.531 66.3038C287.025 65.9478 282.52 65.627 278.014 65.3416C278.014 71.422 278.03 77.5154 278.062 83.6217C284.802 84.2185 291.54 84.8823 298.275 85.613C297.404 88.5956 296.526 91.5653 295.642 94.522C285.728 93.2618 275.798 92.211 265.853 91.3695Z" fill="#0C0B0E"/>
<path d="M295.952 30.0124C295.162 32.7639 294.362 35.4961 293.572 38.2194C288.198 38.0078 282.831 37.8091 277.469 37.6233C277.469 43.9601 277.485 50.3033 277.516 56.653C283.618 57.0633 289.719 57.5164 295.82 58.0122C294.296 60.6227 292.772 63.2172 291.249 65.796C286.692 65.4497 282.124 65.129 277.544 64.8338C277.544 71.1964 277.559 77.5623 277.59 83.9314C284.287 84.5347 290.978 85.1952 297.662 85.913C296.873 88.6073 296.073 91.2811 295.283 93.956C285.644 92.8336 275.991 91.8459 266.321 90.9928L266.237 58.3491V51.7014L266.181 29.2561C276.116 29.4742 286.046 29.7309 295.97 30.026L295.952 30.0124ZM297.204 29.1794H295.97C286.035 28.8972 276.102 28.6502 266.171 28.4386H265.231V29.2949L265.287 51.7227V58.3608L265.372 90.9753V91.8316L266.313 91.9083C275.976 92.7614 285.627 93.7589 295.264 94.9007L295.979 94.9871C296.045 94.7754 296.101 94.5638 296.168 94.3618C296.958 91.687 297.758 89.0034 298.548 86.3092C298.661 85.9431 298.765 85.5781 298.877 85.2218L297.643 85.0868C291.266 84.4072 284.889 83.7819 278.512 83.211C278.512 77.4387 278.496 71.6405 278.464 65.8163C282.728 66.1115 286.986 66.4322 291.238 66.7785L291.802 66.8261L292.065 66.3737C293.584 63.8079 295.104 61.2104 296.627 58.5812L297.351 57.3404L295.809 57.2151C290.027 56.7659 284.237 56.3426 278.438 55.9452C278.438 50.1728 278.422 44.4002 278.391 38.6272C283.454 38.8007 288.508 38.9949 293.554 39.2098H294.269C294.335 38.9884 294.391 38.7767 294.459 38.5651C295.258 35.833 296.049 33.0911 296.848 30.3396C296.952 29.9736 297.055 29.5988 297.168 29.2328L297.204 29.1794Z" fill="white"/>
<defs>
<filter id="filter0_d_957_1659" x="0" y="0" width="362" height="119.252" filterUnits="userSpaceOnUse" color-interpolation-filters="sRGB">
<feFlood flood-opacity="0" result="BackgroundImageFix"/>
<feColorMatrix in="SourceAlpha" type="matrix" values="0 0 0 0 0 0 0 0 0 0 0 0 0 0 0 0 0 0 127 0" result="hardAlpha"/>
<feOffset dy="3"/>
<feGaussianBlur stdDeviation="3"/>
<feColorMatrix type="matrix" values="0 0 0 0 0 0 0 0 0 0 0 0 0 0 0 0 0 0 0.161 0"/>
<feBlend mode="normal" in2="BackgroundImageFix" result="effect1_dropShadow_957_1659"/>
<feBlend mode="normal" in="SourceGraphic" in2="effect1_dropShadow_957_1659" result="shape"/>
</filter>
</defs>
</svg>
