<svg width="31" height="32" viewBox="0 0 31 32" fill="none" xmlns="http://www.w3.org/2000/svg">
<path d="M17.7768 27.7738H27.7022V17.7208L22.3316 12.4385H14.0717C12.9161 14.347 9.04071 14.0742 8.83705 10.9389C8.56547 7.87193 12.6783 6.67919 14.1738 9.201H23.8274L30.9995 16.4257V31.1137H16.3151L14.0245 28.7747C13.4492 28.7747 12.8868 28.6038 12.4085 28.2833C11.9301 27.9629 11.5573 27.5075 11.3371 26.9747C11.117 26.4418 11.0593 25.8555 11.1716 25.2898C11.2838 24.7241 11.5608 24.2045 11.9676 23.7967C12.3744 23.3889 12.8927 23.1111 13.4569 22.9986C14.0211 22.8861 14.606 22.9439 15.1374 23.1646C15.6689 23.3853 16.1232 23.7591 16.4428 24.2387C16.7623 24.7183 16.9329 25.2821 16.9329 25.8588C16.9373 26.193 16.8803 26.5251 16.7648 26.8386L17.7768 27.7738Z" fill="#0C0B0E"/>
<path d="M17.3771 2.6747C17.5027 2.65846 17.6292 2.65027 17.7559 2.6502C18.3312 2.65016 18.8935 2.82115 19.3719 3.14154C19.8502 3.46193 20.223 3.91734 20.4432 4.45017C20.6634 4.983 20.721 5.56932 20.6088 6.13499C20.4966 6.70065 20.2196 7.22026 19.8129 7.62811C19.4061 8.03595 18.8879 8.3137 18.3237 8.42625C17.7595 8.53879 17.1746 8.48108 16.6432 8.26039C16.1117 8.03971 15.6574 7.66597 15.3378 7.18644C15.0181 6.70691 14.8475 6.14312 14.8475 5.56638C14.8514 5.33751 14.8781 5.10961 14.9272 4.88604L13.3779 3.36131H3.2918V13.446L8.59354 18.6832H17.6775C19.9531 16.3919 23.0802 18.164 22.8976 20.8643C22.8083 23.3782 19.1373 24.7753 17.4044 21.9547H7.17885L0.0556641 14.7009V0.0351562H14.7383L17.3771 2.6747Z" fill="#0C0B0E"/>
<path fill-rule="evenodd" clip-rule="evenodd" d="M30.9996 12.4387L27.6345 9.13308V3.40788H22.0259L18.5928 0H30.9996L30.9996 12.4387Z" fill="#FB752C"/>
<path d="M30.9996 12.4387L27.6345 9.13308V3.40788H22.0259L18.5928 0H30.9996L30.9996 12.4387Z" fill="#FB752C"/>
<path fill-rule="evenodd" clip-rule="evenodd" d="M12.5428 31.1484H0V18.6074L3.29717 21.9131V27.7406H9.10976L12.5428 31.1484Z" fill="#FB752C"/>
</svg>
