<svg width="40" height="37" viewBox="0 0 40 37" fill="none" xmlns="http://www.w3.org/2000/svg">
<path d="M31.7263 3.31336C33.8234 2.43349 35.226 1.84499 35.6935 1.65543H35.7035L35.7961 1.61662C36.2013 1.44692 36.6313 1.34385 37.0694 1.31137C37.5429 1.2885 38.0125 1.40752 38.418 1.65322C38.898 1.9553 39.2484 2.42546 39.4005 2.97196C39.5509 3.52489 39.5228 4.1156 39.37 4.79596L39.3698 4.79592L39.3671 4.80973L33.6297 34.2019L33.592 34.2988L33.591 34.3015L33.5908 34.3019L33.5906 34.3025L33.5904 34.3029L33.5903 34.3032L33.5902 34.3034L33.5898 34.3044L33.582 34.3234C33.5742 34.3418 33.5613 34.3712 33.543 34.4096C33.5063 34.4865 33.4482 34.5986 33.3664 34.7305C33.2017 34.9958 32.9468 35.3314 32.5843 35.6231L32.5842 35.6232C31.8989 36.175 30.5274 36.5256 29.1501 35.921L29.1456 35.9191L29.0343 35.8715L21.6487 30.2055L21.3169 29.951L21.0077 30.2325L16.5831 34.2611L16.5482 34.2891C16.5482 34.2891 16.5481 34.2891 16.5481 34.2892C16.5446 34.2917 16.5379 34.2965 16.5281 34.3032C16.5082 34.3168 16.476 34.338 16.4327 34.3635C16.3457 34.4146 16.2172 34.4812 16.0581 34.5386C15.7389 34.6536 15.3167 34.7248 14.8538 34.5847L14.8207 34.5746L14.7864 34.5693C14.7501 34.5635 14.727 34.5599 14.7101 34.5569C14.7025 34.5531 14.6941 34.5491 14.6849 34.5449L14.6873 34.5359C14.5963 34.5091 14.5087 34.4717 14.4263 34.4246C14.255 34.3152 14.1103 34.179 13.9827 34.0105L13.9829 34.0104L13.9747 34.0001C13.6924 33.647 13.4461 33.1605 13.1779 32.3053L13.1774 32.3037C12.8847 31.3814 12.0181 28.5472 11.324 26.2774C10.9041 24.9043 10.5474 23.7377 10.4191 23.3257L10.3432 23.082L10.1013 23.0006L2.58731 20.4692L2.50964 20.443H2.50814C2.46154 20.4241 2.39506 20.3957 2.31473 20.3577C2.14359 20.2766 1.91517 20.1543 1.68354 19.9894L1.68341 19.9893C1.21284 19.6546 0.62709 19.0966 0.514061 18.1898L0.5138 18.1878C0.448035 17.6772 0.627382 17.1627 0.857115 16.8255C1.05739 16.5326 1.31499 16.2834 1.61432 16.0929L1.62152 16.0883L1.62855 16.0835C1.88644 15.9068 2.14134 15.7763 2.33262 15.69C2.42769 15.6471 2.50556 15.6158 2.5583 15.5957C2.55875 15.5955 2.5592 15.5954 2.55965 15.5952L2.56047 15.5972L2.65588 15.5603L2.65492 15.5576L2.66624 15.5529L2.93447 15.4398L3.95356 15.01L7.59937 13.4731C10.6214 12.1994 14.6622 10.4967 18.7377 8.78098L18.7378 8.78095L30.0966 3.99706C30.0968 3.99698 30.097 3.9969 30.0972 3.99682C30.6781 3.75316 31.2223 3.52485 31.7263 3.31336ZM37.3833 3.96684L36.8833 3.95099V3.46838L36.8793 3.46837C36.8646 3.46832 36.8284 3.4682 36.7961 3.47092C36.7716 3.473 36.7357 3.47748 36.6939 3.48902C36.6501 3.50113 36.6155 3.51664 36.5916 3.52875C36.5811 3.53409 36.5727 3.5388 36.5686 3.54112L36.5633 3.54409L36.5631 3.54422C36.5603 3.54546 36.5544 3.54798 36.5446 3.55184L36.5445 3.55173L36.5346 3.55584C34.6546 4.33633 32.7765 5.12145 30.9003 5.91117L30.8997 5.91141C28.1453 7.07483 24.6705 8.53834 21.1228 10.0325C20.5979 10.2536 20.0714 10.4753 19.5453 10.6969C15.4697 12.4127 11.4272 14.1154 8.40364 15.3892L4.75563 16.9261L3.7358 17.3559L3.46736 17.469L3.39857 17.498L3.38865 17.5021L3.35457 17.5142L3.32564 17.5245L3.29818 17.5382L3.2623 17.5562L1.4781 18.1487L3.27508 18.5082L3.2899 18.5132L11.9964 21.4447L12.0871 21.8982L12.6994 21.5189L31.4143 9.92509C31.417 9.92383 31.42 9.92243 31.4233 9.92092C31.4341 9.91593 31.4479 9.90976 31.464 9.90292C31.4317 9.93597 31.3938 9.97308 31.3494 10.0144L31.3489 10.0149L16.4901 23.8642L16.3637 23.982L16.337 24.1526L15.1829 31.5235L14.963 32.9281L16.0137 31.9704L21.1982 27.2449L29.9606 33.9628L30.0158 34.005L30.0804 34.0307C30.3385 34.1331 30.5672 34.202 30.7756 34.1976C31.0443 34.192 31.2064 34.0681 31.2915 34.0005L31.2921 34C31.3908 33.9213 31.4612 33.8398 31.5124 33.7673C31.5549 33.7071 31.599 33.6266 31.5906 33.6408L31.6346 33.5665L31.6512 33.4818L37.3205 4.46838H37.3833V3.96838V3.96684ZM36.5609 3.54546C36.5603 3.54581 36.5608 3.5455 36.5618 3.54495L36.5609 3.54546Z" fill="white" stroke="white"/>
</svg>
