<svg width="44" height="37" viewBox="0 0 44 37" fill="none" xmlns="http://www.w3.org/2000/svg">
<path d="M2 30.0068C4.03053 31.0528 18.7274 38.943 29.1789 32.8616C39.6295 26.7803 39.0526 16.3029 39.0526 11.501C40 9.65397 42 8.71476 42 3.7148C40.0358 5.40498 38.0832 5.97949 36.1421 5.44028C34.2411 2.7403 31.6253 1.54521 28.2937 1.85697C23.2979 2.32462 21.4705 6.88929 22.0084 12.7961C14.3053 16.4235 8.26526 10.1657 5.15158 5.44028C4.11158 9.16182 3.10947 13.6304 5.15158 18.5725C6.51368 21.8686 9.78842 24.6539 14.9737 26.9313C9.7179 29.5832 5.39368 30.6097 2 30.0068Z" stroke="white" stroke-width="3" stroke-linejoin="round"/>
</svg>
