<svg width="40" height="41" viewBox="0 0 40 41" fill="none" xmlns="http://www.w3.org/2000/svg">
<g clip-path="url(#clip0_468_3223)">
<path fill-rule="evenodd" clip-rule="evenodd" d="M29.025 24.7787C28.5283 24.5303 26.0933 23.3337 25.64 23.167C25.1867 23.002 24.8567 22.9203 24.525 23.417C24.195 23.9103 23.2467 25.027 22.9583 25.357C22.6683 25.6887 22.38 25.7287 21.885 25.482C21.39 25.232 19.7933 24.7103 17.9017 23.0237C16.43 21.7103 15.435 20.0887 15.1467 19.592C14.8583 19.097 15.115 18.8287 15.3633 18.582C15.5867 18.3603 15.8583 18.0037 16.1067 17.7153C16.355 17.4253 16.4367 17.2187 16.6017 16.887C16.7683 16.557 16.685 16.2687 16.56 16.0203C16.4367 15.772 15.4467 13.3337 15.0333 12.342C14.6317 11.377 14.2233 11.5087 13.92 11.492C13.63 11.4787 13.3 11.4753 12.97 11.4753C12.64 11.4753 12.1033 11.5987 11.65 12.0953C11.195 12.5903 9.91667 13.7887 9.91667 16.227C9.91667 18.6637 11.69 21.0187 11.9383 21.3503C12.1867 21.6803 15.43 26.6837 20.3983 28.8287C21.5817 29.3387 22.5033 29.6437 23.2217 29.8703C24.4083 30.2487 25.4883 30.1953 26.3417 30.067C27.2917 29.9253 29.2717 28.8687 29.685 27.712C30.0967 26.5553 30.0967 25.5637 29.9733 25.357C29.85 25.1503 29.52 25.027 29.0233 24.7787H29.025ZM19.9883 37.117H19.9817C17.0307 37.1175 14.134 36.3243 11.595 34.8203L10.995 34.4637L4.75833 36.1003L6.42333 30.0203L6.03167 29.397C4.3819 26.7709 3.50883 23.7316 3.51333 20.6303C3.51667 11.547 10.9067 4.157 19.995 4.157C24.395 4.157 28.5317 5.87366 31.6417 8.987C33.1756 10.5146 34.3914 12.3313 35.2188 14.3318C36.0461 16.3324 36.4686 18.4771 36.4617 20.642C36.4583 29.7253 29.0683 37.117 19.9883 37.117ZM34.0083 6.622C32.172 4.77353 29.9871 3.30789 27.5801 2.31C25.1732 1.3121 22.5922 0.8018 19.9867 0.808662C9.06333 0.808662 0.17 9.70033 0.166667 20.6287C0.161605 24.1066 1.07396 27.5243 2.81167 30.537L0 40.8087L10.5067 38.052C13.4131 39.6355 16.6702 40.4653 19.98 40.4653H19.9883C30.9117 40.4653 39.805 31.5737 39.8083 20.6437C39.8164 18.0391 39.3079 15.4588 38.3124 13.0521C37.3168 10.6453 35.8539 8.45978 34.0083 6.622Z" fill="white"/>
</g>
<defs>
<clipPath id="clip0_468_3223">
<rect width="40" height="40" fill="white" transform="translate(0 0.808594)"/>
</clipPath>
</defs>
</svg>
