<svg width="62" height="62" viewBox="0 0 62 62" fill="none" xmlns="http://www.w3.org/2000/svg">
<path d="M45.0964 1H16.9036C8.12029 1 1 8.12029 1 16.9036V45.0964C1 53.8797 8.12029 61 16.9036 61H45.0964C53.8797 61 61 53.8797 61 45.0964V16.9036C61 8.12029 53.8797 1 45.0964 1Z" fill="white" stroke="#512FFF" stroke-width="2"/>
<path d="M39.5991 12.6641H32.918V16.5192H39.5991V12.6641Z" fill="#D5F5FB"/>
<path d="M32.7432 12.6641H39.7746C41.069 12.6641 42.1183 11.6148 42.1183 10.3203C42.1183 9.02589 41.069 7.97656 39.7746 7.97656H32.7432C31.4487 7.97656 30.3994 9.02589 30.3994 10.3203C30.3994 11.6148 31.4487 12.6641 32.7432 12.6641Z" fill="#FF7480"/>
<path d="M36.2737 54.0201C46.6292 54.0201 55.024 45.6253 55.024 35.2698C55.024 24.9143 46.6292 16.5195 36.2737 16.5195C25.9182 16.5195 17.5234 24.9143 17.5234 35.2698C17.5234 45.6253 25.9182 54.0201 36.2737 54.0201Z" fill="#5DDEF5"/>
<path d="M36.2736 49.4426C44.1011 49.4426 50.4465 43.0972 50.4465 35.2696C50.4465 27.4421 44.1011 21.0967 36.2736 21.0967C28.446 21.0967 22.1006 27.4421 22.1006 35.2696C22.1006 43.0972 28.446 49.4426 36.2736 49.4426Z" fill="white"/>
<path d="M36.2738 37.3279C37.4104 37.3279 38.3318 36.4065 38.3318 35.2699C38.3318 34.1333 37.4104 33.2119 36.2738 33.2119C35.1372 33.2119 34.2158 34.1333 34.2158 35.2699C34.2158 36.4065 35.1372 37.3279 36.2738 37.3279Z" fill="#FF838E"/>
<path d="M55.9036 33.3074C55.4547 28.7919 53.4373 24.5349 50.223 21.3205C47.4761 18.5737 44.114 16.8085 40.5762 16.0237V13.5424C42.0211 13.1829 43.0952 11.875 43.0952 10.3204C43.0952 8.48948 41.6057 7 39.7748 7H32.7435C30.9126 7 29.4231 8.48948 29.4231 10.3204C29.4231 11.8749 30.4971 13.1828 31.942 13.5424V16.0306C28.4151 16.8188 25.0641 18.5815 22.325 21.3206C21.7255 21.92 21.1728 22.5489 20.6668 23.2024C20.6423 23.2005 20.6178 23.1987 20.5928 23.1987H13.6336C13.0943 23.1987 12.657 23.6359 12.657 24.1753C12.657 24.7146 13.0943 25.1518 13.6336 25.1518H19.338C18.622 26.3506 18.0446 27.6095 17.6052 28.9054H6.97658C6.43731 28.9054 6 29.3426 6 29.882C6 30.4213 6.43731 30.8586 6.97658 30.8586H17.0533C16.7718 32.094 16.6103 33.3514 16.5686 34.6122H12.2501C11.7108 34.6122 11.2735 35.0494 11.2735 35.5888C11.2735 36.1282 11.7108 36.5654 12.2501 36.5654H16.5998C16.6822 37.8295 16.8854 39.0869 17.2095 40.3191H10.8829C10.3436 40.3191 9.90631 40.7563 9.90631 41.2956C9.90631 41.835 10.3436 42.2722 10.8829 42.2722H17.8328C18.7908 44.8065 20.288 47.1819 22.325 49.2188C25.5424 52.4362 29.8038 54.454 34.324 54.9006C34.9691 54.9643 35.6147 54.9958 36.2594 54.9958C40.0702 54.9958 43.8326 53.893 47.025 51.8141C47.477 51.5197 47.6048 50.9147 47.3105 50.4628C47.0161 50.0108 46.4112 49.883 45.9592 50.1773C38.9711 54.7279 29.6123 53.744 23.706 47.8377C16.776 40.9077 16.776 29.6319 23.706 22.7018C30.6359 15.7719 41.9118 15.7719 48.8419 22.7018C54.7403 28.6003 55.7296 37.9511 51.194 44.9358C50.9003 45.3882 51.0289 45.9931 51.4812 46.2867C51.9337 46.5805 52.5384 46.4519 52.8321 45.9995C55.2553 42.2675 56.3462 37.7601 55.9036 33.3074ZM31.3763 10.3205C31.3763 9.56654 31.9896 8.95325 32.7435 8.95325H39.7748C40.5287 8.95325 41.142 9.56654 41.142 10.3205C41.142 11.0744 40.5287 11.6877 39.7748 11.6877H39.5996H32.9186H32.7435C31.9896 11.6877 31.3763 11.0743 31.3763 10.3205ZM33.8951 15.6949V13.6408H38.623V15.6913C37.0531 15.5046 35.4648 15.5058 33.8951 15.6949Z" fill="black"/>
<path d="M49.5332 47.5508C49.2754 47.5508 49.0244 47.6553 48.8429 47.8369C48.6603 48.0186 48.5566 48.2705 48.5566 48.5273C48.5566 48.7842 48.6603 49.0361 48.8429 49.2178C49.0244 49.4004 49.2755 49.5039 49.5332 49.5039C49.79 49.5039 50.041 49.4004 50.2236 49.2178C50.4053 49.0361 50.5098 48.7842 50.5098 48.5273C50.5098 48.2705 50.4054 48.0186 50.2236 47.8369C50.041 47.6553 49.7899 47.5508 49.5332 47.5508Z" fill="black"/>
<path d="M36.2745 20.1201C27.9211 20.1201 21.125 26.9161 21.125 35.2697C21.125 43.6232 27.9211 50.4192 36.2745 50.4192C44.628 50.4192 51.4241 43.6232 51.4241 35.2697C51.4241 26.9161 44.628 20.1201 36.2745 20.1201ZM36.2745 48.4661C28.998 48.4661 23.0782 42.5461 23.0782 35.2697C23.0782 27.9932 28.998 22.0733 36.2745 22.0733C43.5511 22.0733 49.4709 27.9932 49.4709 35.2697C49.4709 42.5461 43.5511 48.4661 36.2745 48.4661Z" fill="black"/>
<path d="M42.4514 27.7108L37.6144 32.5477C37.2099 32.3477 36.7549 32.2347 36.274 32.2347C35.7929 32.2347 35.338 32.3477 34.9335 32.5477L32.7688 30.3829C32.3873 30.0016 31.7691 30.0016 31.3876 30.3829C31.0062 30.7643 31.0062 31.3827 31.3876 31.764L33.5524 33.9288C33.3523 34.3333 33.2394 34.7883 33.2394 35.2692C33.2394 36.9425 34.6006 38.3039 36.274 38.3039C37.9473 38.3039 39.3086 36.9425 39.3086 35.2692C39.3086 34.7883 39.1956 34.3333 38.9956 33.9288L43.6906 29.2338L43.8325 29.0919C44.2138 28.7105 44.2138 28.0922 43.8325 27.7108C43.4511 27.3295 42.833 27.3295 42.4514 27.7108ZM36.274 36.3508C35.6777 36.3508 35.1925 35.8656 35.1925 35.2693C35.1925 34.673 35.6777 34.1879 36.274 34.1879C36.8703 34.1879 37.3554 34.673 37.3554 35.2693C37.3554 35.8656 36.8703 36.3508 36.274 36.3508Z" fill="black"/>
<path d="M46.7153 34.3047H45.8105C45.2713 34.3047 44.834 34.7419 44.834 35.2812C44.834 35.8206 45.2713 36.2578 45.8105 36.2578H46.7153C47.2546 36.2578 47.6919 35.8206 47.6919 35.2812C47.6919 34.7419 47.2546 34.3047 46.7153 34.3047Z" fill="black"/>
<path d="M26.7377 34.2812H25.833C25.2937 34.2812 24.8564 34.7185 24.8564 35.2578C24.8564 35.7972 25.2937 36.2344 25.833 36.2344H26.7377C27.277 36.2344 27.7143 35.7972 27.7143 35.2578C27.7143 34.7185 27.277 34.2812 26.7377 34.2812Z" fill="black"/>
<path d="M36.2861 26.7094C36.8254 26.7094 37.2627 26.2722 37.2627 25.7328V24.8281C37.2627 24.2888 36.8254 23.8516 36.2861 23.8516C35.7469 23.8516 35.3096 24.2888 35.3096 24.8281V25.7328C35.3096 26.2722 35.7469 26.7094 36.2861 26.7094Z" fill="black"/>
<path d="M36.2617 43.8301C35.7225 43.8301 35.2852 44.2673 35.2852 44.8066V45.7113C35.2852 46.2507 35.7225 46.6879 36.2617 46.6879C36.801 46.6879 37.2383 46.2507 37.2383 45.7113V44.8066C37.2383 44.2673 36.801 43.8301 36.2617 43.8301Z" fill="black"/>
<path d="M6.97656 40.3184C6.71973 40.3184 6.46777 40.4229 6.28613 40.6045C6.10449 40.7861 6 41.0381 6 41.2949C6 41.5527 6.10439 41.8037 6.28613 41.9854C6.46787 42.167 6.71973 42.2715 6.97656 42.2715C7.2334 42.2715 7.48535 42.167 7.66689 41.9854C7.84853 41.8037 7.95312 41.5518 7.95312 41.2949C7.95312 41.0381 7.84863 40.7861 7.66689 40.6045C7.48535 40.4229 7.2334 40.3184 6.97656 40.3184Z" fill="black"/>
</svg>
