<svg width="36" height="30" viewBox="0 0 36 30" fill="none" xmlns="http://www.w3.org/2000/svg">
<path d="M7.20214 30C6.54195 30 5.97698 29.7652 5.50724 29.2956C5.0367 28.8252 4.80143 28.26 4.80143 27.6C4.80143 26.94 5.0367 26.3748 5.50724 25.9044C5.97698 25.4348 6.54195 25.2 7.20214 25.2C7.86234 25.2 8.42731 25.4348 8.89705 25.9044C9.36759 26.3748 9.60286 26.94 9.60286 27.6C9.60286 28.26 9.36759 28.8252 8.89705 29.2956C8.42731 29.7652 7.86234 30 7.20214 30ZM19.2057 30C18.5455 30 17.9806 29.7652 17.5108 29.2956C17.0403 28.8252 16.805 28.26 16.805 27.6C16.805 26.94 17.0403 26.3748 17.5108 25.9044C17.9806 25.4348 18.5455 25.2 19.2057 25.2C19.8659 25.2 20.4313 25.4348 20.9018 25.9044C21.3716 26.3748 21.6064 26.94 21.6064 27.6C21.6064 28.26 21.3716 28.8252 20.9018 29.2956C20.4313 29.7652 19.8659 30 19.2057 30ZM6.18184 10.8L9.0627 16.8H17.4652L20.7662 10.8H6.18184ZM7.20214 24C6.30188 24 5.62167 23.6048 5.16154 22.8144C4.7014 22.0248 4.68139 21.24 5.10152 20.46L6.722 17.52L2.40071 8.4H1.17035C0.830247 8.4 0.550164 8.2848 0.330098 8.0544C0.110033 7.8248 0 7.54 0 7.2C0 6.86 0.115234 6.5748 0.345703 6.3444C0.575371 6.1148 0.860256 6 1.20036 6H3.15094C3.371 6 3.58107 6.06 3.78113 6.18C3.98119 6.3 4.13123 6.47 4.23126 6.69L5.0415 8.4H22.7468C23.2869 8.4 23.657 8.6 23.8571 9C24.0572 9.4 24.0472 9.82 23.8271 10.26L19.5658 17.94C19.3458 18.34 19.0557 18.65 18.6956 18.87C18.3355 19.09 17.9253 19.2 17.4652 19.2H8.52254L7.20214 21.6H20.4361C20.7762 21.6 21.0563 21.7148 21.2763 21.9444C21.4964 22.1748 21.6064 22.46 21.6064 22.8C21.6064 23.14 21.4912 23.4248 21.2607 23.6544C21.0311 23.8848 20.7462 24 20.4061 24H7.20214ZM9.0627 16.8H17.4652H9.0627Z" fill="#512FFF"/>
<circle cx="27" cy="9" r="8" fill="#512FFF" stroke="white" stroke-width="2"/>
<path d="M29.1183 5.37217C29.1183 5.37913 29.1235 5.41391 29.1339 5.47652C29.1443 5.53565 29.1548 5.61565 29.1652 5.71652C29.1757 5.81391 29.1843 5.92522 29.1913 6.05043C29.1948 6.13739 29.1965 6.22609 29.1965 6.31652V6.45217C29.1826 7.25565 28.993 7.8713 28.6278 8.29913V8.29391C28.273 8.72174 27.7913 8.93565 27.1826 8.93565C27.0157 8.93565 26.8643 8.92522 26.7287 8.90435C26.5965 8.88 26.4643 8.84174 26.3322 8.78957L26.3739 9.07652C26.4157 9.40348 26.4487 9.74087 26.473 10.0887C26.5009 10.433 26.5217 10.7791 26.5357 11.127C26.553 11.4713 26.5635 11.8122 26.567 12.1496C26.5739 12.4835 26.5774 12.8017 26.5774 13.1043H25.5391C25.5391 12.5513 25.5339 12.0017 25.5235 11.4557C25.513 10.9061 25.4852 10.3739 25.44 9.85913C25.3948 9.34087 25.327 8.84696 25.2365 8.37739C25.1496 7.90435 25.0278 7.46957 24.8713 7.07304C24.7983 6.88522 24.72 6.70609 24.6365 6.53565C24.553 6.36522 24.4591 6.18957 24.3548 6.0087L25.2261 5.45565C25.2817 5.54609 25.3322 5.63826 25.3774 5.73217C25.4261 5.82261 25.473 5.91826 25.5183 6.01913C25.567 6.11652 25.6157 6.22087 25.6643 6.33217C25.713 6.44348 25.767 6.56348 25.8261 6.69217C25.9061 6.87652 25.9843 7.04348 26.0609 7.19304C26.1409 7.33913 26.2313 7.46609 26.3322 7.57391C26.4365 7.68174 26.5548 7.76522 26.687 7.82435C26.8226 7.88 26.9878 7.90783 27.1826 7.90783C27.4713 7.90783 27.6887 7.81913 27.8348 7.64174C27.9009 7.56522 27.9548 7.47652 27.9965 7.37565C28.0383 7.2713 28.0713 7.16174 28.0957 7.04696C28.1235 6.93217 28.1426 6.81391 28.153 6.69217C28.1635 6.57043 28.1687 6.45217 28.1687 6.33739C28.1687 6.18783 28.16 6.04348 28.1426 5.90435C28.1287 5.76522 28.113 5.65043 28.0957 5.56L29.1183 5.37217Z" fill="white"/>
</svg>
