<svg width="24" height="24" viewBox="0 0 24 24" fill="none" xmlns="http://www.w3.org/2000/svg">
<g clip-path="url(#clip0_468_2494)">
<path d="M21.5 0H13.5C13.3674 0 13.2402 0.0526784 13.1464 0.146447C13.0527 0.240215 13 0.367392 13 0.5V4.5C13 4.62395 13.046 4.74349 13.1292 4.83541C13.2123 4.92734 13.3267 4.9851 13.45 4.9975L21.25 5.7775C21.3331 5.78596 21.4165 5.79013 21.5 5.79C21.6681 5.78864 21.8356 5.77038 22 5.7355V11H20.56C20.4757 11.0011 20.3921 10.9838 20.3152 10.9492C20.2382 10.9147 20.1697 10.8637 20.1145 10.8C20.0707 10.7496 20.0386 10.6902 20.0204 10.626C20.0021 10.5618 19.9983 10.4944 20.009 10.4285L20.5535 7.0785C20.5748 6.94762 20.5433 6.81361 20.4659 6.70597C20.3884 6.59832 20.2714 6.52585 20.1405 6.5045C20.0096 6.48315 19.8756 6.51467 19.768 6.59212C19.6603 6.66957 19.5878 6.78662 19.5665 6.9175L19.022 10.2675C18.9873 10.4766 18.9987 10.6907 19.0554 10.895C19.112 11.0992 19.2126 11.2886 19.35 11.45C19.4995 11.6242 19.6852 11.7638 19.8942 11.8588C20.1032 11.9538 20.3304 12.002 20.56 12H22.5C22.6326 12 22.7598 11.9473 22.8536 11.8536C22.9473 11.7598 23 11.6326 23 11.5V5.2765C23.059 5.232 23.122 5.194 23.177 5.144C23.4359 4.90946 23.6429 4.62334 23.7846 4.30405C23.9263 3.98476 23.9997 3.63934 24 3.29V2.5C23.9992 1.8372 23.7356 1.20178 23.2669 0.73311C22.7982 0.264441 22.1628 0.000793929 21.5 0V0ZM23 3.29C23 3.49963 22.9561 3.70694 22.871 3.89855C22.786 4.09016 22.6617 4.26181 22.5062 4.40244C22.3508 4.54307 22.1675 4.64955 21.9684 4.71501C21.7692 4.78047 21.5586 4.80346 21.35 4.7825L14 4.05V1H15V3.5C15 3.63261 15.0527 3.75979 15.1464 3.85355C15.2402 3.94732 15.3674 4 15.5 4C15.6326 4 15.7598 3.94732 15.8536 3.85355C15.9473 3.75979 16 3.63261 16 3.5V1H21.5C21.8978 1 22.2794 1.15804 22.5607 1.43934C22.842 1.72064 23 2.10218 23 2.5V3.29Z" fill="#1E88C7"/>
<path d="M21.5 1.5H20C19.8674 1.5 19.7402 1.55268 19.6464 1.64645C19.5527 1.74021 19.5 1.86739 19.5 2C19.5 2.13261 19.5527 2.25979 19.6464 2.35355C19.7402 2.44732 19.8674 2.5 20 2.5H21.5C21.6326 2.5 21.7598 2.44732 21.8536 2.35355C21.9473 2.25979 22 2.13261 22 2C22 1.86739 21.9473 1.74021 21.8536 1.64645C21.7598 1.55268 21.6326 1.5 21.5 1.5Z" fill="#1E88C7"/>
<path d="M21.5 3H20C19.8674 3 19.7402 3.05268 19.6464 3.14645C19.5527 3.24021 19.5 3.36739 19.5 3.5C19.5 3.63261 19.5527 3.75979 19.6464 3.85355C19.7402 3.94732 19.8674 4 20 4H21.5C21.6326 4 21.7598 3.94732 21.8536 3.85355C21.9473 3.75979 22 3.63261 22 3.5C22 3.36739 21.9473 3.24021 21.8536 3.14645C21.7598 3.05268 21.6326 3 21.5 3Z" fill="#1E88C7"/>
<path d="M10.5 2H11.5C11.6326 2 11.7598 1.94732 11.8536 1.85355C11.9473 1.75979 12 1.63261 12 1.5C12 1.36739 11.9473 1.24021 11.8536 1.14645C11.7598 1.05268 11.6326 1 11.5 1H10.5C10.3674 1 10.2402 1.05268 10.1464 1.14645C10.0527 1.24021 10 1.36739 10 1.5C10 1.63261 10.0527 1.75979 10.1464 1.85355C10.2402 1.94732 10.3674 2 10.5 2Z" fill="#1E88C7"/>
<path d="M10.5 4H11.5C11.6326 4 11.7598 3.94732 11.8536 3.85355C11.9473 3.75979 12 3.63261 12 3.5C12 3.36739 11.9473 3.24021 11.8536 3.14645C11.7598 3.05268 11.6326 3 11.5 3H10.5C10.3674 3 10.2402 3.05268 10.1464 3.14645C10.0527 3.24021 10 3.36739 10 3.5C10 3.63261 10.0527 3.75979 10.1464 3.85355C10.2402 3.94732 10.3674 4 10.5 4Z" fill="#1E88C7"/>
<path d="M14.25 15.0205C13.8949 15.0888 13.5751 15.2797 13.3466 15.56C13.1181 15.8402 12.9954 16.1919 13 16.5535V20.5C13 20.6326 12.9473 20.7598 12.8536 20.8536C12.7598 20.9473 12.6326 21 12.5 21H11.7425L10.277 13.228C10.2328 12.9975 10.1347 12.7807 9.9905 12.5955C9.9905 12.5635 10 12.5325 10 12.5V8.95C10.1646 8.98342 10.3321 9.00017 10.5 9H11.5C11.6326 9 11.7598 8.94732 11.8536 8.85355C11.9473 8.75979 12 8.63261 12 8.5V6.5C12 6.10218 11.842 5.72064 11.5607 5.43934C11.2794 5.15804 10.8978 5 10.5 5H1.5C1.23663 5.00034 0.977965 5.06978 0.74984 5.20139C0.521715 5.333 0.332121 5.52217 0.2 5.75C0.138397 5.86447 0.123799 5.99844 0.159302 6.12349C0.194805 6.24855 0.277617 6.35486 0.39018 6.41989C0.502744 6.48492 0.636208 6.50355 0.762277 6.47183C0.888346 6.44012 0.997106 6.36055 1.0655 6.25C1.10978 6.17401 1.17319 6.11094 1.24943 6.06708C1.32566 6.02322 1.41205 6.00009 1.5 6H3V6.5C3 6.89782 2.84196 7.27936 2.56066 7.56066C2.27936 7.84196 1.89782 8 1.5 8H1C1 7.86739 0.947322 7.74021 0.853553 7.64645C0.759785 7.55268 0.632608 7.5 0.5 7.5C0.367392 7.5 0.240215 7.55268 0.146447 7.64645C0.0526784 7.74021 0 7.86739 0 8L0 8.5C0 8.63261 0.0526784 8.75979 0.146447 8.85355C0.240215 8.94732 0.367392 9 0.5 9H1.5C1.66814 8.99839 1.83567 8.97963 2 8.944V12.5C2 12.5325 2.0075 12.5635 2.0095 12.5955C1.86525 12.7809 1.76706 12.9978 1.723 13.2285L0.026 22.2285C-0.0140908 22.4418 -0.00650571 22.6614 0.0482119 22.8714C0.102929 23.0815 0.203425 23.2768 0.3425 23.4435C0.488358 23.6186 0.671124 23.7593 0.877714 23.8555C1.0843 23.9517 1.30961 24.0011 1.5375 24H8C8.39782 24 8.77936 23.842 9.06066 23.5607C9.34196 23.2794 9.5 22.8978 9.5 22.5V17.5C9.5 17.3674 9.44732 17.2402 9.35355 17.1464C9.25979 17.0527 9.13261 17 9 17C8.86739 17 8.74021 17.0527 8.64645 17.1464C8.55268 17.2402 8.5 17.3674 8.5 17.5V22.5C8.5 22.6326 8.44732 22.7598 8.35355 22.8536C8.25979 22.9473 8.13261 23 8 23C7.86739 23 7.74021 22.9473 7.64645 22.8536C7.55268 22.7598 7.5 22.6326 7.5 22.5V17.5C7.5 17.3674 7.44732 17.2402 7.35355 17.1464C7.25979 17.0527 7.13261 17 7 17C6.86739 17 6.74021 17.0527 6.64645 17.1464C6.55268 17.2402 6.5 17.3674 6.5 17.5V22.5C6.50166 22.6707 6.53278 22.8399 6.592 23H5.408C5.46722 22.8399 5.49834 22.6707 5.5 22.5V17.5C5.5 17.3674 5.44732 17.2402 5.35355 17.1464C5.25979 17.0527 5.13261 17 5 17C4.86739 17 4.74021 17.0527 4.64645 17.1464C4.55268 17.2402 4.5 17.3674 4.5 17.5V22.5C4.5 22.6326 4.44732 22.7598 4.35355 22.8536C4.25979 22.9473 4.13261 23 4 23C3.86739 23 3.74021 22.9473 3.64645 22.8536C3.55268 22.7598 3.5 22.6326 3.5 22.5V17.5C3.5 17.3674 3.44732 17.2402 3.35355 17.1464C3.25979 17.0527 3.13261 17 3 17C2.86739 17 2.74021 17.0527 2.64645 17.1464C2.55268 17.2402 2.5 17.3674 2.5 17.5V22.5C2.50166 22.6707 2.53278 22.8399 2.592 23H1.5375C1.45668 23.0007 1.3767 22.9836 1.30325 22.9499C1.22979 22.9162 1.16466 22.8667 1.1125 22.805C1.06696 22.7518 1.03396 22.689 1.01596 22.6213C0.997956 22.5537 0.995407 22.4828 1.0085 22.414L2.646 13.7305C2.89627 13.9058 3.19442 13.9999 3.5 14H8.5C8.80558 13.9999 9.10373 13.9058 9.354 13.7305L10.837 21.593C10.8587 21.7074 10.9196 21.8106 11.0092 21.8849C11.0988 21.9592 11.2116 21.9999 11.328 22H12.5C12.8978 22 13.2794 21.842 13.5607 21.5607C13.842 21.2794 14 20.8978 14 20.5V16.5535C13.9955 16.429 14.034 16.3067 14.1091 16.2072C14.1841 16.1077 14.291 16.037 14.412 16.007C14.4846 15.9947 14.559 15.9984 14.6301 16.0177C14.7011 16.0371 14.7671 16.0716 14.8235 16.119C14.8788 16.1659 14.9232 16.2243 14.9537 16.2901C14.9842 16.3559 15 16.4275 15 16.5V21.5C15 21.8978 14.842 22.2794 14.5607 22.5607C14.2794 22.842 13.8978 23 13.5 23H10.4625C10.3299 23 10.2027 23.0527 10.1089 23.1464C10.0152 23.2402 9.9625 23.3674 9.9625 23.5C9.9625 23.6326 10.0152 23.7598 10.1089 23.8536C10.2027 23.9473 10.3299 24 10.4625 24H13.5C14.1628 23.9992 14.7982 23.7356 15.2669 23.2669C15.7356 22.7982 15.9992 22.1628 16 21.5V16.5C16.0001 16.2818 15.9525 16.0663 15.8607 15.8683C15.7689 15.6704 15.635 15.4949 15.4684 15.354C15.3018 15.2132 15.1065 15.1104 14.896 15.0527C14.6856 14.9951 14.4651 14.9841 14.25 15.0205ZM11 6.5V8H10.5C10.1022 8 9.72064 7.84196 9.43934 7.56066C9.15804 7.27936 9 6.89782 9 6.5V6H10.5C10.6326 6 10.7598 6.05268 10.8536 6.14645C10.9473 6.24021 11 6.36739 11 6.5ZM9 12.5C9 12.6326 8.94732 12.7598 8.85355 12.8536C8.75979 12.9473 8.63261 13 8.5 13H3.5C3.36739 13 3.24021 12.9473 3.14645 12.8536C3.05268 12.7598 3 12.6326 3 12.5V8.5C3.45452 8.16049 3.77974 7.6762 3.922 7.127C3.9741 6.92208 4.00031 6.71144 4 6.5V6H8V6.5C8.00089 6.8864 8.09172 7.26728 8.26528 7.61251C8.43885 7.95773 8.69039 8.25781 9 8.489C9 8.493 9 8.496 9 8.5V12.5Z" fill="#1E88C7"/>
</g>
<defs>
<clipPath id="clip0_468_2494">
<rect width="24" height="24" fill="white"/>
</clipPath>
</defs>
</svg>
