<svg width="98" height="133" viewBox="0 0 98 133" fill="none" xmlns="http://www.w3.org/2000/svg">
<path d="M47.8216 131.987C43.5172 129.995 39.733 126.592 36.6649 122.988L30.246 119.287C22.6314 114.886 18.5285 107.236 16.3393 100.821V105.985L11.7172 97.6012C6.02589 87.2719 6.55768 77.0227 7.81146 70.6817C7.45329 71.0261 7.07768 71.4047 6.69644 71.8294L0 78.9452L2.50756 69.5569C2.50756 69.4822 4.10225 63.738 6.55187 56.892L0.461361 60.3351L2.7724 54.0628C3.55558 51.843 4.55001 49.7024 5.7422 47.67C5.67282 47.3429 5.56311 46.9179 5.49954 46.6715C5.41188 46.3617 5.34052 46.0476 5.28577 45.7304C5.15282 44.8121 5.01423 43.917 4.88076 43.0161C4.13536 38.058 3.36125 32.9277 3.47677 27.6367C3.55319 24.8359 4.45461 0 17.2983 0C19.1447 0.0417607 20.9554 0.513471 22.5847 1.37717C32.6495 6.43284 40.7092 15.7925 44.0141 20.0216C44.3966 19.9577 44.7824 19.9155 45.1697 19.8953L45.2505 20.2913L45.8282 20.1478C46.198 20.0445 46.5735 19.9413 46.9144 19.8552L47.6716 19.6429C48.0716 19.5283 48.4859 19.4704 48.9023 19.4708C49.3186 19.4712 49.7328 19.5291 50.133 19.6429L50.9304 19.8668L51.9818 20.148L52.5596 20.2914L52.6404 19.8955C53.0277 19.9156 53.4135 19.9578 53.7959 20.0217C57.1008 15.7925 65.1664 6.43284 75.2368 1.37734C76.8385 0.527933 78.6159 0.0566216 80.4308 0C93.3207 0 94.17 24.8422 94.2278 27.6712C94.3433 32.9507 93.5692 38.0809 92.8238 43.039C92.6852 43.9341 92.5523 44.8352 92.4188 45.7419C92.3727 46.0289 92.2975 46.3158 92.1992 46.7002C92.1415 46.9297 92.0318 47.3601 91.9624 47.6987C93.1608 49.7294 94.1592 51.8703 94.9436 54.0915L97.2554 60.3407L91.1541 56.8976C93.6037 63.715 95.1991 69.523 95.1991 69.5742L97.7125 78.9681L91.0104 71.8523C90.623 71.4392 90.2419 71.0546 89.8549 70.7046C91.1087 77.0169 91.6459 87.2832 85.955 97.6241L81.3329 106.008V100.843C79.1374 107.282 75.0411 114.909 67.4262 119.31L60.9956 123.023C57.9103 126.621 54.1491 130.019 49.8506 132.009L48.8106 132.492L47.8216 131.987Z" fill="white"/>
<path d="M92.8298 70.1881C91.0279 63.7969 88.8774 57.5077 86.3878 51.3485C88.4909 52.5651 90.5998 53.7702 92.6449 54.9294C91.858 52.6613 90.8173 50.4881 89.5423 48.4506C89.2254 47.9801 89.9121 45.9429 89.9988 45.3919C90.8539 39.4978 91.9111 33.7198 91.7784 27.723C91.6282 20.3596 89.1148 -2.86924 76.2595 3.55801C65.3108 9.04988 56.6444 20.1482 54.7262 22.7248C53.9703 22.5197 53.1964 22.387 52.415 22.3287C52.7789 22.4692 53.1123 22.6776 53.3972 22.9428C52.9518 22.8255 52.4978 22.743 52.0394 22.696L51.2942 22.5066C50.9068 22.3976 50.5488 22.3 50.2253 22.2195L49.405 21.9894C49.0445 21.8862 48.662 21.8862 48.3015 21.9894L47.4811 22.2188C47.1576 22.2991 46.7943 22.3967 46.4069 22.5059C46.1815 22.5632 45.9158 22.6379 45.6615 22.6953C45.2057 22.7442 44.7539 22.8247 44.3095 22.9363C44.5925 22.6731 44.9241 22.4665 45.2859 22.328C44.5046 22.3867 43.7308 22.5193 42.9749 22.724C41.0621 20.148 32.3956 9.04971 21.4579 3.55783C8.62572 -2.86941 6.11253 20.3603 5.9507 27.7228C5.82356 33.7196 6.88082 39.4983 7.73593 45.3918C7.81676 45.9656 8.5044 47.9803 8.19236 48.4504C6.92395 50.4898 5.88729 52.6627 5.10141 54.9293C7.1351 53.7816 9.23817 52.5649 11.3471 51.3483C8.86487 57.5085 6.72033 63.7976 4.92285 70.1881C5.25743 69.8324 9.54493 65.2587 11.9542 65.276C11.9542 65.276 5.33315 80.8562 13.9129 96.4536C13.9129 96.4536 13.9129 90.5715 16.3683 89.292C16.3683 89.292 17.7896 109.245 31.5123 117.17C31.5123 117.17 28.6235 112.55 29.6114 107.414C29.6114 107.414 37.3013 124.372 48.8914 129.743C60.48 124.372 68.1767 107.414 68.1767 107.414C69.1589 112.521 66.2701 117.17 66.2701 117.17C79.9921 109.245 81.4141 89.2918 81.4141 89.2918C83.8695 90.5715 83.8695 96.4534 83.8695 96.4534C92.4551 80.856 85.8338 65.2758 85.8338 65.2758C88.2366 65.2587 92.4947 69.8324 92.8298 70.1881Z" fill="#0C0B0E"/>
<path d="M82.3429 61.2189C79.9511 51.1134 69.6898 46.9296 69.6898 46.9296C71.8557 46.8377 76.7159 48.8577 77.0152 48.9839C71.9426 41.3459 64.0559 42.775 64.0559 42.775C65.2808 40.5887 69.0652 41.2371 69.7469 41.3634H69.7757C59.8844 37.7998 54.2512 41.2715 51.3797 44.4794C50.3277 45.631 49.4781 46.9502 48.8663 48.3816C48.2547 46.9502 47.4051 45.6311 46.3531 44.4794C43.4643 41.2715 37.8479 37.7998 27.9571 41.3634H27.986C28.6678 41.2371 32.452 40.5887 33.6769 42.775C33.6769 42.775 25.7674 41.346 20.712 48.9839C21.0124 48.8577 25.8715 46.8377 28.0374 46.9296C28.0374 46.9296 17.7763 51.113 15.3843 61.2189C15.3843 61.2189 19.365 58.7228 21.9303 58.4186C21.9303 58.4186 14.7024 69.0291 16.378 82.8648C16.378 82.8648 19.804 75.7145 22.8605 74.5381C22.8605 74.5381 17.9552 87.5532 25.5008 97.2283C25.5008 97.2283 26.0785 90.0954 29.0714 87.2891C29.0714 87.2891 27.9159 95.9313 35.2477 107.225L35.2829 107.282C35.2829 107.282 34.4162 102.996 36.3747 100.241C36.3747 100.241 37.975 108.436 42.1523 113.319C43.9144 115.379 46.1274 116.843 48.8716 116.843C51.616 116.843 53.8288 115.379 55.5909 113.319C59.7451 108.436 61.3685 100.241 61.3685 100.241C63.3272 102.996 62.4603 107.282 62.4603 107.282L62.4955 107.225C69.8159 95.9313 68.6718 87.2891 68.6718 87.2891C71.6715 90.0954 72.2442 97.2283 72.2442 97.2283C79.7898 87.5532 74.8845 74.5381 74.8845 74.5381C77.941 75.7145 81.367 82.8648 81.367 82.8648C83.0425 69.0291 75.8146 58.4186 75.8146 58.4186C78.3622 58.7228 82.3429 61.2189 82.3429 61.2189Z" fill="white"/>
<path d="M46.3426 44.4851C38.5593 38.9932 28.8306 41.162 27.9762 41.3633H27.9126C37.8553 37.7941 43.4711 41.2772 46.3426 44.4851Z" fill="white"/>
<path d="M30.4659 46.2929C30.4659 46.2929 18.8355 53.6102 15.3804 61.2131C17.7722 51.1076 28.0335 46.9238 28.0335 46.9238C25.8676 46.8319 21.0074 48.8519 20.708 48.9781C20.9327 48.7777 24.3935 45.5985 30.4659 46.2929Z" fill="white"/>
<path d="M25.4968 97.2283C17.9513 87.5531 22.8565 74.5381 22.8565 74.5381C19.8001 75.7145 16.374 82.8647 16.374 82.8647C16.374 82.8647 16.374 73.3388 25.6587 70.1194C25.6585 70.1194 20.2738 89.0853 25.4968 97.2283Z" fill="white"/>
<path d="M36.3712 100.241C34.4125 102.996 35.2794 107.282 35.2794 107.282L35.2442 107.225C34.961 106.72 33.0545 102.875 36.7984 97.366C36.7984 97.366 38.289 107.276 42.1253 113.319C37.9717 108.459 36.3712 100.241 36.3712 100.241Z" fill="white"/>
<path d="M51.3804 44.4851C59.1637 38.9932 68.8924 41.162 69.7468 41.3633H69.8104C59.8966 37.7941 54.2519 41.2772 51.3804 44.4851Z" fill="white"/>
<path d="M67.2573 46.2929C67.2573 46.2929 78.8763 53.6095 82.3428 61.2189C79.9508 51.1133 69.6897 46.9295 69.6897 46.9295C71.8556 46.8377 76.7158 48.8576 77.0151 48.9839C76.7905 48.7777 73.3297 45.5985 67.2573 46.2929Z" fill="white"/>
<path d="M72.2268 97.2283C79.7723 87.5531 74.8671 74.5381 74.8671 74.5381C77.9235 75.7145 81.3496 82.8647 81.3496 82.8647C81.3496 82.8647 81.3496 73.3388 72.0649 70.1194C72.0649 70.1194 77.4497 89.0853 72.2268 97.2283Z" fill="white"/>
<path d="M61.3533 100.241C63.312 102.996 62.4451 107.282 62.4451 107.282L62.4803 107.225C62.7634 106.72 64.67 102.875 60.9261 97.366C60.9261 97.366 59.4355 107.276 55.5991 113.319C59.7528 108.459 61.3533 100.241 61.3533 100.241Z" fill="white"/>
<path d="M48.8621 37.3808L40.9409 31.9064C40.9409 31.9064 48.8621 37.909 48.8621 42.3564C48.8621 37.909 56.7833 31.9064 56.7833 31.9064L48.8621 37.3808Z" fill="white"/>
<path d="M48.8623 36.0439L39.4272 31.0858C39.4272 31.0858 48.8621 36.5202 48.8621 40.548C48.8621 36.531 58.3028 31.0858 58.3028 31.0858L48.8623 36.0439Z" fill="white"/>
<path d="M32.1536 24.3084C32.0553 24.4174 31.6508 24.6986 31.6508 24.8823C28.4442 14.6964 19.8703 12.8316 19.8703 12.8316C24.296 15.127 26.9305 19.6835 27.0057 19.8212C22.5049 17.4397 16.7219 18.8743 16.7219 18.8743C19.2181 20.1564 21.6303 21.5939 23.944 23.1782C17.9873 23.8323 16.3348 25.1581 16.3348 25.1581C17.6175 25.3933 25.0012 27.6487 25.0012 27.6487C20.8759 30.4147 17.2475 34.4317 13.9197 39.1143C9.69633 19.8269 13.4055 16.6077 13.4055 16.6077C14.9023 17.4054 16.9473 16.7685 16.9473 16.7685C15.8136 15.9429 15.0553 14.7049 14.8384 13.3254C14.5899 11.1676 16.8779 9.20506 18.929 10.0197C19.969 10.4329 20.986 10.892 21.9797 11.3855C24.9401 12.7482 27.669 14.5603 30.0683 16.7567C31.9564 18.5928 34.3195 21.9383 32.1536 24.3084Z" fill="white"/>
<path d="M11.9199 25.1121C12.1662 29.8292 12.8352 34.515 13.9189 39.1141C15.6016 36.6937 17.4756 34.4102 19.5232 32.2853L14.7452 35.5276L11.9199 25.1121Z" fill="white"/>
<path d="M16.7206 18.8969C19.2168 20.1791 21.629 21.6166 23.9427 23.2009C20.7477 22.9198 14.4731 18.7077 14.4731 18.7077C22.8796 15.7519 26.8257 19.6604 27.0049 19.8554C22.504 17.4624 16.7206 18.8969 16.7206 18.8969Z" fill="white"/>
<path d="M65.588 24.3086C65.6862 24.4176 66.0907 24.6988 66.0907 24.8824C69.2974 14.6966 77.8713 12.8318 77.8713 12.8318C73.4456 15.1272 70.8111 19.6837 70.7359 19.8213C75.2366 17.4399 81.0197 18.8744 81.0197 18.8744C78.5236 20.1564 76.1115 21.5938 73.7979 23.178C79.7546 23.8322 81.4071 25.1579 81.4071 25.1579C80.1244 25.3931 72.7405 27.6485 72.7405 27.6485C76.8484 30.4145 80.4768 34.4315 83.8047 39.1141C88.0282 19.8268 84.3189 16.6075 84.3189 16.6075C82.8222 17.4053 80.7772 16.7683 80.7772 16.7683C81.9109 15.9427 82.6692 14.7047 82.8861 13.3252C83.1345 11.1674 80.8466 9.20487 78.7954 10.0196C77.7554 10.4327 76.7387 10.8918 75.7448 11.3854C72.7842 12.748 70.0552 14.5601 67.6558 16.7566C65.7671 18.593 63.4039 21.9385 65.588 24.3086Z" fill="white"/>
<path d="M85.8098 25.1122C85.5661 29.8291 84.899 34.5151 83.8165 39.1142C82.1319 36.6936 80.256 34.4102 78.2065 32.2854L82.9963 35.5277L85.8098 25.1122Z" fill="white"/>
<path d="M81.0034 18.897C78.5072 20.1791 76.0951 21.6167 73.7815 23.201C76.9765 22.9197 83.251 18.7078 83.251 18.7078C74.8446 15.752 70.8983 19.6605 70.7192 19.8555C75.22 17.4625 81.0034 18.897 81.0034 18.897Z" fill="white"/>
<path d="M40.9643 62.1656C41.1665 61.9878 40.9995 61.0179 40.9995 60.7712C41.0095 59.837 40.8789 58.9067 40.6121 58.0109C39.8264 55.5203 37.5904 53.8619 35.2852 54.0513C33.4306 54.2005 31.6401 55.5318 30.6053 57.4026C30.0949 58.3659 29.9007 59.4637 30.0499 60.5421C30.1991 61.6206 30.6842 62.6257 31.4374 63.4165C31.9525 63.9533 32.5855 64.3647 33.287 64.6185C33.9886 64.8724 34.7396 64.9618 35.4817 64.8799C36.7463 64.7328 37.9456 64.2426 38.9482 63.4632C39.4062 63.0858 39.8279 62.667 40.2078 62.2122C40.2981 62.102 40.4155 62.0169 40.5487 61.9654C40.6005 61.9762 40.9175 62.1943 40.9643 62.1656Z" fill="white"/>
<path d="M56.9209 62.1656C56.7129 61.9878 56.8857 61.0179 56.8857 60.7712C56.8737 59.8373 57.0022 58.907 57.2669 58.0109C58.0526 55.5203 60.2887 53.8619 62.5997 54.0513C64.4487 54.2005 66.2397 55.5318 67.2739 57.4026C67.7851 58.3653 67.9803 59.4628 67.8322 60.5412C67.684 61.6196 67.1999 62.625 66.4477 63.4165C65.9318 63.9523 65.2987 64.3629 64.5973 64.6167C63.896 64.8704 63.1453 64.9605 62.4034 64.8799C61.1397 64.7294 59.9412 64.2396 58.9368 63.4632C58.4805 63.0839 58.0592 62.6647 57.6781 62.2108C57.5902 62.1009 57.4748 62.0158 57.3435 61.964C57.2856 61.9762 56.9621 62.1943 56.9209 62.1656Z" fill="white"/>
<path d="M34.2623 80.8729C34.1526 80.4023 34.141 79.8802 34.0716 79.4095C34.0023 78.9389 33.9098 78.4397 33.8117 77.9519C33.6286 77.063 33.3934 76.1854 33.1074 75.3237C32.8739 74.6209 32.5721 73.9425 32.2061 73.298C31.9616 72.8386 31.6088 72.4448 31.1777 72.1503C31.1777 72.1503 34.0665 73.4701 34.4883 76.6092C34.91 79.7483 35.1238 83.1625 37.9895 87.2139C36.556 86.0781 35.0018 84.1556 34.2623 80.8729Z" fill="white"/>
<path d="M66.744 72.1336C65.8792 72.5675 65.1292 73.1971 64.5542 73.9716C63.9792 74.746 63.5953 75.6438 63.4334 76.5925C63.0108 79.7315 62.7979 83.1513 59.9322 87.203C57.0665 91.2548 61.4517 87.9261 61.4517 87.9261L64.2366 82.3992L66.7441 73.7339L66.744 72.1336Z" fill="white"/>
<path d="M63.6411 80.8729C63.7508 80.4024 63.7624 79.8802 63.8376 79.4095C63.9128 78.9389 63.9937 78.4397 64.0919 77.9519C64.2805 77.0643 64.5156 76.187 64.7963 75.3237C65.0317 74.6208 65.3355 73.9424 65.7033 73.298C65.9439 72.8376 66.2951 72.4434 66.7259 72.1503C65.8612 72.5842 65.1111 73.2137 64.5361 73.9882C63.9611 74.7627 63.5772 75.6604 63.4154 76.6092C62.9927 79.7481 62.7798 83.1625 59.9199 87.2141C61.3473 86.0781 62.9073 84.1556 63.6411 80.8729Z" fill="white"/>
<path d="M68.0785 73.2412C68.0457 73.8404 67.9606 74.4356 67.8243 75.0201C67.6647 75.6402 67.4719 76.2513 67.2465 76.8508C67.0385 77.3615 66.8189 77.8665 66.5879 78.3773C64.4044 83.0199 63.5026 86.4112 60.9489 89.774C58.3952 93.1368 58.2161 101.199 55.3965 106.197C52.5769 111.195 48.891 111.269 48.891 111.269C48.891 111.269 45.193 111.177 42.3738 106.197C39.5545 101.217 39.3751 93.0903 36.833 89.774C34.291 86.4577 33.3665 83.0197 31.1998 78.3773C30.9514 77.8666 30.7318 77.3617 30.5354 76.8508C30.3076 76.2521 30.1147 75.6409 29.9577 75.0201C29.8241 74.435 29.7391 73.8401 29.7034 73.2412C29.6666 73.0092 29.6825 72.772 29.7497 72.5469C29.7752 72.4541 29.8205 72.368 29.8827 72.2943C30.0407 72.1257 30.2532 72.0174 30.4832 71.988C30.7133 71.9586 30.9464 72.0101 31.1423 72.1336C31.5701 72.43 31.9207 72.8234 32.1648 73.2813C32.5344 73.9226 32.8328 74.6019 33.055 75.3071C33.3458 76.168 33.5831 77.0457 33.7657 77.9354C33.8639 78.4232 33.962 78.9052 34.0314 79.393C34.1008 79.8808 34.118 80.3857 34.2163 80.8564C35.499 86.5317 39.2198 88.1903 40.5028 88.482C41.7858 88.7738 44.4085 88.482 45.772 87.9942C47.1355 87.5064 46.494 85.2569 47.228 84.4709C47.7053 84.0845 48.3022 83.8735 48.9179 83.8735C49.5337 83.8735 50.1306 84.0845 50.6079 84.4709C51.3358 85.257 50.7061 87.5008 52.0694 87.9942C53.7707 88.538 55.5714 88.7045 57.3445 88.482C58.6097 88.1894 62.348 86.531 63.6134 80.8564C63.7231 80.3859 63.7347 79.8636 63.8099 79.393C63.8851 78.9223 63.9717 78.4232 64.0642 77.9354C64.2522 77.047 64.4895 76.1696 64.7749 75.3071C65.0083 74.6044 65.3101 73.926 65.6761 73.2814C65.9206 72.822 66.2735 72.4283 66.7045 72.1337C66.8949 72.0269 67.1156 71.9858 67.3321 72.017C67.5485 72.0481 67.7484 72.1497 67.9005 72.3058C67.9559 72.3847 68.0024 72.4694 68.0391 72.5584C68.0913 72.7821 68.1047 73.013 68.0785 73.2412Z" fill="#0C0B0E"/>
<path d="M57.9683 93.0448C57.1596 95.7075 56.1722 106.949 49.4578 108.745C49.0697 108.848 48.6615 108.848 48.2734 108.745C41.5597 106.949 40.5544 95.7075 39.7628 93.0448C38.9713 90.3821 40.9184 90.0148 42.7615 91.2888C44.6047 92.5627 45.217 92.557 46.1298 92.6546C46.2523 92.6709 46.3738 92.6939 46.4938 92.7235C46.9548 92.8732 47.3606 93.1555 47.6599 93.5345C47.9592 93.9135 48.1385 94.3722 48.1751 94.8525L48.8619 101.297L49.5437 94.8583C49.5781 94.3758 49.7572 93.9146 50.0579 93.5341C50.3586 93.1536 50.7672 92.8713 51.2309 92.7235C51.3507 92.6934 51.4723 92.6704 51.5949 92.6546C52.5019 92.557 53.149 92.5743 54.9632 91.2888C56.7773 90.0033 58.7831 90.3074 57.9683 93.0448Z" fill="#B02C34"/>
<path d="M55.8299 80.0412C55.5815 80.4946 54.0162 82.997 49.2203 83.9894C48.986 84.0382 48.744 84.0382 48.5096 83.9894C43.7199 83.0025 42.1543 80.5003 41.8942 80.047C41.5456 78.9027 41.4142 77.704 41.5068 76.5121C41.5262 76.2362 41.6146 75.9694 41.7639 75.736C41.9132 75.5025 42.1187 75.3097 42.3619 75.175C44.3606 74.0793 46.5823 73.4456 48.8618 73.321C51.1432 73.4448 53.367 74.0785 55.3674 75.175C55.606 75.3087 55.8082 75.4983 55.9562 75.7274C56.1042 75.9564 56.1936 76.2179 56.2166 76.4892C56.3174 77.687 56.1859 78.8928 55.8292 80.0414L55.8299 80.0412Z" fill="#0C0B0E"/>
<path d="M19.0029 44.5025C19.0029 44.5025 21.7531 30.3858 37.0876 30.2077C37.0876 30.2077 30.3797 33.5992 28.6234 36.3595C28.6234 36.3595 29.3341 35.0913 28.843 34.4141C24.5582 36.6411 21.1085 40.1781 19.0036 44.5025H19.0029Z" fill="white"/>
<path d="M78.7207 44.5026C78.7207 44.5026 75.9885 30.4144 60.6431 30.2078C60.6431 30.2078 67.3452 33.5993 69.1073 36.3596C69.1073 36.3596 68.3908 35.0914 68.8877 34.4142C73.1716 36.6403 76.6196 40.1778 78.7207 44.5026Z" fill="white"/>
<path d="M40.883 61.3049C41.0909 61.1442 40.9182 60.3064 40.9182 60.0596C40.9294 59.2218 40.8005 58.388 40.5369 57.5921C40.1537 56.5076 39.4268 55.5758 38.4652 54.9364C37.5037 54.297 36.3593 53.9844 35.2038 54.0457C34.2443 54.1541 33.3231 54.4814 32.5121 55.0021C31.7011 55.5227 31.0223 56.2226 30.5287 57.047C30.0196 57.901 29.8236 58.9037 29.9742 59.8848C30.1249 60.866 30.6127 61.7652 31.3549 62.4297C31.8997 62.9162 32.541 63.2839 33.2376 63.5093C33.9342 63.7346 34.6705 63.8126 35.3993 63.7381C36.644 63.6088 37.8361 63.1707 38.8658 62.4641C39.3189 62.1296 39.7405 61.755 40.1254 61.3448C40.2177 61.2465 40.3325 61.1717 40.46 61.1267C40.5192 61.1099 40.8426 61.3336 40.883 61.3049Z" fill="#0C0B0E"/>
<path d="M38.2604 56.8461C38.2604 56.8461 40.2711 59.7154 37.8906 60.8115C38.2481 60.2205 38.4669 59.5572 38.531 58.8707C38.595 58.1842 38.5025 57.4923 38.2604 56.8461Z" fill="white"/>
<path d="M36.5845 58.0054C36.9068 58.0054 37.1681 57.7459 37.1681 57.4258C37.1681 57.1056 36.9068 56.8461 36.5845 56.8461C36.2622 56.8461 36.001 57.1056 36.001 57.4258C36.001 57.7459 36.2622 58.0054 36.5845 58.0054Z" fill="white"/>
<path d="M56.8408 61.3049C56.6329 61.1441 56.8056 60.3064 56.8056 60.0596C56.7965 59.2215 56.9274 58.3877 57.193 57.5921C57.5759 56.5087 58.3019 55.5776 59.2622 54.9382C60.2225 54.2989 61.3655 53.9858 62.52 54.0456C63.4803 54.1534 64.4025 54.4804 65.2143 55.001C66.0262 55.5217 66.7058 56.222 67.1998 57.0469C67.7072 57.9019 67.9015 58.9047 67.7499 59.8856C67.5983 60.8665 67.11 61.7653 66.3678 62.4297C65.8246 62.9186 65.1835 63.2879 64.4865 63.5134C63.7895 63.7389 63.0523 63.8155 62.3235 63.7381C61.0782 63.6107 59.8857 63.1725 58.8569 62.4641C58.4026 62.1311 57.9809 61.7563 57.5973 61.3448C57.5026 61.2463 57.3858 61.1716 57.2564 61.1267C57.2048 61.11 56.8813 61.3336 56.8408 61.3049Z" fill="#0C0B0E"/>
<path d="M59.4693 56.8459C59.4693 56.8459 57.4528 59.7151 59.8391 60.8112C59.4788 60.2213 59.2583 59.5578 59.1943 58.8708C59.1302 58.1839 59.2242 57.4914 59.4693 56.8459Z" fill="white"/>
<path d="M61.1402 58.0051C61.4625 58.0051 61.7238 57.7456 61.7238 57.4255C61.7238 57.1054 61.4625 56.8459 61.1402 56.8459C60.8179 56.8459 60.5566 57.1054 60.5566 57.4255C60.5566 57.7456 60.8179 58.0051 61.1402 58.0051Z" fill="white"/>
<path d="M38.7349 49.3514C38.3246 49.0366 37.7238 48.5021 37.1635 48.5818C36.3258 48.7023 32.5934 50.487 30.7734 52.8169C32.5645 51.4166 34.916 49.8785 37.2964 49.9935C37.786 50.0146 38.2702 50.1035 38.7351 50.2574C39.1915 50.4008 39.6652 50.5329 40.116 50.6936C39.7173 50.1874 39.253 49.7359 38.7351 49.3507L38.7349 49.3514Z" fill="#0C0B0E"/>
<path d="M58.991 49.3514C59.4013 49.0366 60.0021 48.5021 60.5683 48.5818C61.4059 48.7023 65.1384 50.487 66.9525 52.8169C65.1615 51.4166 62.8157 49.8785 60.4295 49.9935C59.9419 50.0152 59.4597 50.104 58.9966 50.2574C58.5402 50.4008 58.0663 50.5329 57.6157 50.6936C58.0133 50.1884 58.4756 49.737 58.9908 49.3507L58.991 49.3514Z" fill="#0C0B0E"/>
<path d="M45.4012 75.1749C46.4419 74.5328 47.6426 74.1925 48.8678 74.1925C50.0929 74.1925 51.2937 74.5328 52.3343 75.1749C52.3812 75.2025 52.4177 75.2446 52.4381 75.2948C52.4585 75.345 52.4617 75.4005 52.4473 75.4527C52.4328 75.5049 52.4015 75.5509 52.3581 75.5837C52.3147 75.6164 52.2617 75.6341 52.2072 75.634H45.5347C45.4797 75.6354 45.4258 75.6187 45.3814 75.5864C45.337 75.5541 45.3047 75.508 45.2895 75.4555C45.2743 75.403 45.277 75.347 45.2974 75.2962C45.3177 75.2454 45.3544 75.2027 45.4018 75.1749H45.4012Z" fill="white"/>
<path d="M43.7782 62.6133C43.8536 64.7592 43.3698 66.8881 42.3737 68.7938C41.4725 70.4235 40.184 72.059 40.0627 74.4118C40.0627 74.4118 39.7457 72.0819 42.0444 67.4857C42.0444 67.4857 41.224 67.4226 40.496 68.5932C41.2356 67.4053 42.1369 66.2978 42.4489 64.6229C42.6974 63.3031 42.8187 61.8627 43.0266 60.5084C43.2697 58.407 43.7146 59.9449 43.7782 62.6133Z" fill="white"/>
<path d="M53.9463 62.6133C53.8778 64.7585 54.361 66.8857 55.3503 68.7938C56.2574 70.4235 57.54 72.059 57.6614 74.4118C57.6614 74.4118 57.9734 72.0819 55.6738 67.4857C55.6738 67.4857 56.4942 67.4226 57.2222 68.5932C56.4826 67.4053 55.5814 66.2978 55.2693 64.6229C55.0267 63.3031 54.9053 61.8627 54.6916 60.5084C54.4549 58.407 54.033 59.9449 53.9463 62.6133Z" fill="white"/>
<path d="M43.7787 61.7003C43.8333 63.2681 43.3367 64.806 42.3742 66.0499C41.4729 67.1976 40.1845 68.3453 40.0632 70.0037C40.0632 70.0037 39.7462 68.3624 42.0449 65.1259C41.7454 65.1371 41.4518 65.2127 41.1845 65.3474C40.9172 65.4821 40.6825 65.6728 40.4965 65.9063C41.2361 65.0685 42.1373 64.2937 42.4494 63.1115C42.6978 62.1819 42.8192 61.1661 43.0271 60.2423C43.2701 58.739 43.7151 59.818 43.7787 61.7003Z" fill="#0C0B0E"/>
<path d="M53.9467 61.7008C53.8976 63.2678 54.3934 64.8038 55.3507 66.0504C56.2577 67.1981 57.5404 68.3458 57.6617 70.0042C57.6617 70.0042 57.9737 68.3629 55.6741 65.1264C55.9737 65.1376 56.2672 65.2132 56.5345 65.3479C56.8018 65.4827 57.0365 65.6733 57.2225 65.9068C56.4829 65.069 55.5817 64.2942 55.2697 63.1121C55.0274 62.1828 54.9058 61.1672 54.6928 60.2437C54.4551 58.7396 54.0333 59.8185 53.9467 61.7008Z" fill="#0C0B0E"/>
</svg>
