<svg width="24" height="24" viewBox="0 0 24 24" fill="none" xmlns="http://www.w3.org/2000/svg">
<path d="M13.2 7.1998C14.1548 7.1998 15.0705 7.57909 15.7456 8.25422C16.4207 8.92935 16.8 9.84502 16.8 10.7998C16.8 11.1181 16.9264 11.4233 17.1515 11.6483C17.3765 11.8734 17.6817 11.9998 18 11.9998C18.3183 11.9998 18.6235 11.8734 18.8485 11.6483C19.0736 11.4233 19.2 11.1181 19.2 10.7998C19.2 9.20851 18.5679 7.68238 17.4426 6.55716C16.3174 5.43195 14.7913 4.7998 13.2 4.7998C12.8817 4.7998 12.5765 4.92623 12.3515 5.15128C12.1264 5.37632 12 5.68154 12 5.9998C12 6.31806 12.1264 6.62329 12.3515 6.84833C12.5765 7.07338 12.8817 7.1998 13.2 7.1998Z" fill="#512FFF"/>
<path d="M13.2 2.4C15.4278 2.4 17.5644 3.285 19.1397 4.8603C20.715 6.43561 21.6 8.57218 21.6 10.8C21.6 11.1183 21.7264 11.4235 21.9515 11.6485C22.1765 11.8736 22.4817 12 22.8 12C23.1183 12 23.4235 11.8736 23.6485 11.6485C23.8736 11.4235 24 11.1183 24 10.8C24 7.93566 22.8621 5.18864 20.8367 3.16325C18.8114 1.13785 16.0643 0 13.2 0C12.8817 0 12.5765 0.126428 12.3515 0.351472C12.1264 0.576515 12 0.88174 12 1.2C12 1.51826 12.1264 1.82348 12.3515 2.04853C12.5765 2.27357 12.8817 2.4 13.2 2.4ZM23.7 16.692C23.634 16.4994 23.5201 16.3267 23.3689 16.1902C23.2178 16.0538 23.0344 15.958 22.836 15.912L15.636 14.268C15.4406 14.2237 15.2371 14.229 15.0443 14.2835C14.8515 14.338 14.6753 14.4399 14.532 14.58C14.364 14.736 14.352 14.748 13.572 16.236C10.9838 15.0434 8.90999 12.961 7.728 10.368C9.252 9.6 9.264 9.6 9.42 9.42C9.56005 9.27667 9.66198 9.10054 9.71648 8.9077C9.77097 8.71486 9.77631 8.51143 9.732 8.316L8.088 1.2C8.04197 1.00163 7.94623 0.818245 7.80977 0.667094C7.67332 0.515943 7.50064 0.402003 7.308 0.336C7.02776 0.235907 6.73837 0.16356 6.444 0.12C6.1407 0.0496742 5.8312 0.00947921 5.52 0C4.056 0 2.65197 0.58157 1.61677 1.61677C0.58157 2.65197 0 4.056 0 5.52C0.0063503 10.4192 1.95538 15.116 5.41968 18.5803C8.88398 22.0446 13.5807 23.9936 18.48 24C19.2049 24 19.9227 23.8572 20.5924 23.5798C21.2621 23.3024 21.8706 22.8958 22.3832 22.3832C22.8958 21.8706 23.3024 21.2621 23.5798 20.5924C23.8572 19.9227 24 19.2049 24 18.48C24.0004 18.1746 23.9763 17.8696 23.928 17.568C23.8776 17.2699 23.8013 16.9768 23.7 16.692ZM18.48 21.6C14.2163 21.5968 10.1281 19.9017 7.11323 16.8868C4.09834 13.8719 2.40318 9.7837 2.4 5.52C2.40316 4.6935 2.73289 3.90175 3.31732 3.31732C3.90175 2.73289 4.6935 2.40316 5.52 2.4H5.916L7.2 7.968L6.552 8.304C5.52 8.844 4.704 9.276 5.136 10.212C5.83947 12.2035 6.97773 14.0133 8.46808 15.5099C9.95844 17.0064 11.7635 18.1522 13.752 18.864C14.76 19.272 15.156 18.516 15.696 17.472L16.044 16.812L21.6 18.084V18.48C21.5968 19.3065 21.2671 20.0982 20.6827 20.6827C20.0982 21.2671 19.3065 21.5968 18.48 21.6Z" fill="#512FFF"/>
</svg>
