<svg width="27" height="31" viewBox="0 0 27 31" fill="none" xmlns="http://www.w3.org/2000/svg">
<path d="M26.9913 27.0138L25.4203 4.18063C25.3037 2.48647 23.2607 0.654297 21.508 0.654297H5.49009C3.7376 0.654297 1.69634 2.48624 1.57969 4.1804L0.00865138 27.0136C-0.0231659 27.4225 0.032993 27.8334 0.173573 28.2203C0.314153 28.6071 0.536093 28.9615 0.825342 29.2609C1.40997 29.8664 2.73307 30.6543 3.60565 30.6543H23.3925C24.2653 30.6543 25.5901 29.8667 26.1749 29.261C26.4641 28.9616 26.6859 28.6073 26.8265 28.2205C26.967 27.8337 27.0232 27.4228 26.9914 27.0139L26.9913 27.0138ZM24.3678 28.0963C24.2425 28.2245 24.0911 28.3261 23.9232 28.3948C23.7553 28.4634 23.5746 28.4976 23.3924 28.4951H3.60565C3.4233 28.4986 3.24224 28.4649 3.07422 28.3962C2.9062 28.3274 2.75498 28.2252 2.63039 28.0962C2.5058 27.9671 2.41062 27.8141 2.35104 27.6471C2.29146 27.4801 2.2688 27.3028 2.28455 27.1268L3.85559 4.29404C3.91078 3.49077 4.65944 2.81228 5.49009 2.81228H21.508C22.3389 2.81228 23.0873 3.49077 23.1425 4.29382L24.7135 27.127C24.7282 27.3029 24.705 27.4799 24.6455 27.6468C24.586 27.8136 24.4915 27.9667 24.3678 28.0963Z" fill="white"/>
<path d="M18.21 5.67285C17.9767 5.67285 17.753 5.76265 17.588 5.92249C17.423 6.08233 17.3304 6.29911 17.3304 6.52516C17.3304 7.50969 16.9267 8.4539 16.2082 9.15008C15.4896 9.84625 14.5151 10.2374 13.499 10.2374C12.4828 10.2374 11.5083 9.84625 10.7897 9.15008C10.0712 8.4539 9.66755 7.50969 9.66755 6.52516C9.66755 6.29911 9.57487 6.08233 9.4099 5.92249C9.24493 5.76265 9.02118 5.67285 8.78788 5.67285C8.55457 5.67285 8.33083 5.76265 8.16585 5.92249C8.00088 6.08233 7.9082 6.29911 7.9082 6.52516C7.9082 7.96178 8.49723 9.33957 9.5457 10.3554C10.5942 11.3713 12.0162 11.942 13.499 11.942C14.9817 11.942 16.4037 11.3713 17.4522 10.3554C18.5007 9.33957 19.0897 7.96178 19.0897 6.52516C19.0897 6.29911 18.997 6.08233 18.8321 5.92249C18.6671 5.76265 18.4433 5.67285 18.21 5.67285Z" fill="white"/>
<path d="M13.4991 19.3262C12.2172 19.3275 10.9883 19.8215 10.0818 20.6997C9.1754 21.5778 8.66552 22.7685 8.66406 24.0105C8.66419 24.6318 8.91897 25.2276 9.37238 25.667C9.8258 26.1064 10.4407 26.3533 11.082 26.3534C11.6767 26.3534 12.1356 26.2216 12.5406 26.1053C12.8727 26.0098 13.1598 25.9275 13.4991 25.9275C13.8383 25.9275 14.1254 26.0098 14.4578 26.1053C14.8628 26.2216 15.3216 26.3534 15.9163 26.3534C16.5576 26.3533 17.1725 26.1064 17.6259 25.6671C18.0793 25.2278 18.3341 24.632 18.3343 24.0107C18.3328 22.7687 17.8229 21.578 16.9164 20.6998C16.0099 19.8215 14.781 19.3276 13.4991 19.3262ZM16.4682 24.3584C16.4084 24.4474 16.3266 24.5206 16.2303 24.5713C16.1339 24.6219 16.026 24.6485 15.9163 24.6484C15.5768 24.6484 15.29 24.5661 14.9576 24.4706C14.5526 24.3543 14.0938 24.2225 13.4991 24.2225C12.9043 24.2225 12.4455 24.3543 12.0407 24.4706C11.7083 24.5661 11.4213 24.6484 11.082 24.6484C10.9074 24.6483 10.7399 24.5811 10.6164 24.4614C10.4929 24.3418 10.4235 24.1795 10.4234 24.0103C10.4234 23.22 10.7475 22.462 11.3243 21.9032C11.9011 21.3443 12.6834 21.0304 13.4991 21.0304C14.3148 21.0304 15.0971 21.3443 15.6739 21.9032C16.2507 22.462 16.5748 23.22 16.5748 24.0103C16.5749 24.1339 16.5379 24.2549 16.4683 24.3584H16.4682Z" fill="white"/>
<path d="M10.1949 18.294C10.3389 18.1546 10.4285 17.9711 10.4485 17.7749C10.4684 17.5786 10.4176 17.3817 10.3045 17.2177C10.1914 17.0537 10.0232 16.9328 9.82842 16.8756C9.63365 16.8183 9.42442 16.8283 9.23638 16.9038C9.04834 16.9792 8.89312 17.1155 8.79719 17.2895C8.70126 17.4634 8.67055 17.6642 8.71029 17.8576C8.75003 18.051 8.85776 18.2251 9.01512 18.3501C9.17249 18.4752 9.36975 18.5435 9.57328 18.5435C9.80625 18.5425 10.0295 18.4529 10.1949 18.294Z" fill="white"/>
<path d="M12.7604 16.9746C12.9043 16.8352 12.9939 16.6518 13.0139 16.4556C13.0339 16.2594 12.983 16.0625 12.87 15.8985C12.757 15.7345 12.5888 15.6136 12.394 15.5563C12.1993 15.499 11.9901 15.5089 11.802 15.5843C11.614 15.6597 11.4588 15.796 11.3628 15.9698C11.2668 16.1437 11.236 16.3445 11.2756 16.5379C11.3153 16.7313 11.4229 16.9054 11.5802 17.0305C11.7375 17.1557 11.9347 17.2241 12.1382 17.2241C12.3714 17.2235 12.5949 17.1339 12.7604 16.9746Z" fill="white"/>
<path d="M15.482 16.9746C15.626 16.8352 15.7156 16.6518 15.7356 16.4555C15.7556 16.2593 15.7047 16.0624 15.5916 15.8984C15.4786 15.7344 15.3103 15.6135 15.1155 15.5562C14.9208 15.499 14.7115 15.5089 14.5235 15.5844C14.3354 15.6599 14.1802 15.7962 14.0843 15.9701C13.9884 16.1441 13.9577 16.3448 13.9974 16.5382C14.0371 16.7317 14.1449 16.9057 14.3022 17.0308C14.4596 17.1559 14.6569 17.2242 14.8604 17.2241C15.0934 17.2236 15.3169 17.1339 15.482 16.9746Z" fill="white"/>
<path d="M18.0465 18.294C18.1904 18.1546 18.28 17.9711 18.3 17.7749C18.32 17.5786 18.2691 17.3817 18.1561 17.2177C18.043 17.0537 17.8748 16.9328 17.68 16.8756C17.4852 16.8183 17.276 16.8283 17.0879 16.9038C16.8999 16.9792 16.7447 17.1155 16.6488 17.2895C16.5528 17.4634 16.5221 17.6642 16.5619 17.8576C16.6016 18.051 16.7093 18.2251 16.8667 18.3501C17.024 18.4752 17.2213 18.5435 17.4248 18.5435C17.6579 18.5428 17.8812 18.4532 18.0465 18.294Z" fill="white"/>
</svg>
