<svg width="24" height="24" viewBox="0 0 24 24" fill="none" xmlns="http://www.w3.org/2000/svg">
<path d="M10.263 20.526C11.9464 20.5256 13.5939 20.1089 15.0633 19.3249C15.955 18.8491 17.0823 18.8976 17.797 19.6123L21.2777 23.093C21.7787 23.5939 22.5908 23.5939 23.0917 23.093C23.5926 22.5921 23.5926 21.7799 23.0917 21.279L19.6112 17.7985C18.8965 17.0838 18.8481 15.9562 19.3241 15.0645C20.1086 13.5948 20.5256 11.9468 20.526 10.263C20.526 4.60423 15.9217 0 10.263 0C4.60423 0 0 4.60423 0 10.263C0 15.9217 4.60423 20.526 10.263 20.526ZM10.263 2.56575C14.508 2.56575 17.9602 6.01796 17.9602 10.263C17.9602 14.508 14.508 17.9602 10.263 17.9602C6.01796 17.9602 2.56575 14.508 2.56575 10.263C2.56575 6.01796 6.01796 2.56575 10.263 2.56575Z" fill="#512FFF"/>
<path d="M12.0745 8.44894C12.5607 8.93643 12.8288 9.58043 12.8288 10.2629H15.3946C15.3957 9.58868 15.2632 8.9209 15.0047 8.29818C14.7462 7.67546 14.3668 7.11016 13.8885 6.63495C11.9462 4.69525 8.57868 4.69525 6.6377 6.63495L8.44911 8.4515C9.4241 7.47909 11.1047 7.48165 12.0745 8.44894Z" fill="#512FFF"/>
</svg>
