<svg width="22" height="19" viewBox="0 0 22 19" fill="none" xmlns="http://www.w3.org/2000/svg">
<path d="M8.75019 11.1252C8.75019 11.3477 8.68421 11.5652 8.56059 11.7502C8.43697 11.9352 8.26127 12.0794 8.05571 12.1645C7.85014 12.2497 7.62394 12.2719 7.40571 12.2285C7.18748 12.1851 6.98703 12.078 6.82969 11.9206C6.67236 11.7633 6.56521 11.5629 6.5218 11.3446C6.4784 11.1264 6.50067 10.9002 6.58582 10.6946C6.67097 10.4891 6.81517 10.3134 7.00017 10.1898C7.18518 10.0661 7.40268 10.0002 7.62519 10.0002C7.92356 10.0002 8.2097 10.1187 8.42068 10.3297C8.63166 10.5406 8.75019 10.8268 8.75019 11.1252ZM14.3752 10.0002C14.1527 10.0002 13.9352 10.0661 13.7502 10.1898C13.5652 10.3134 13.421 10.4891 13.3358 10.6946C13.2507 10.9002 13.2284 11.1264 13.2718 11.3446C13.3152 11.5629 13.4224 11.7633 13.5797 11.9206C13.737 12.078 13.9375 12.1851 14.1557 12.2285C14.3739 12.2719 14.6001 12.2497 14.8057 12.1645C15.0113 12.0794 15.187 11.9352 15.3106 11.7502C15.4342 11.5652 15.5002 11.3477 15.5002 11.1252C15.5002 10.8268 15.3817 10.5406 15.1707 10.3297C14.9597 10.1187 14.6736 10.0002 14.3752 10.0002ZM20.8158 11.5002C20.6183 11.5884 20.404 11.6332 20.1877 11.6314C19.8453 11.6321 19.5135 11.5127 19.2502 11.2939V15.2502C19.2502 16.2447 18.8551 17.1985 18.1518 17.9018C17.4486 18.6051 16.4947 19.0002 15.5002 19.0002H6.50019C5.50563 19.0002 4.5518 18.6051 3.84854 17.9018C3.14528 17.1985 2.75019 16.2447 2.75019 15.2502V11.2939C2.48682 11.5127 2.15506 11.6321 1.81269 11.6314C1.59633 11.6332 1.38211 11.5884 1.18456 11.5002C0.875509 11.3637 0.622404 11.1256 0.467232 10.8255C0.31206 10.5254 0.264146 10.1812 0.331437 9.85015L1.86894 1.64703C1.90759 1.4465 1.98654 1.2559 2.10099 1.08677C2.21545 0.91764 2.36304 0.773495 2.53482 0.663061C2.70661 0.552628 2.89902 0.478203 3.1004 0.444293C3.30179 0.410383 3.50796 0.417693 3.70644 0.46578L8.84394 1.75015H13.1564L18.2939 0.46578C18.4924 0.417693 18.6986 0.410383 18.9 0.444293C19.1014 0.478203 19.2938 0.552628 19.4655 0.663061C19.6373 0.773495 19.7849 0.91764 19.8994 1.08677C20.0138 1.2559 20.0928 1.4465 20.1314 1.64703L21.6689 9.85015C21.7362 10.1812 21.6883 10.5254 21.5331 10.8255C21.378 11.1256 21.1249 11.3637 20.8158 11.5002ZM7.44706 2.95015L3.34081 1.9189L1.80331 10.1314L7.44706 2.95015ZM17.7502 15.2502V9.43765L12.8846 3.25015H9.11581L4.25019 9.43765V15.2502C4.25266 15.8461 4.4905 16.417 4.91192 16.8384C5.33335 17.2598 5.90421 17.4977 6.50019 17.5002H10.2502V16.3095L8.96581 15.0345C8.84622 14.8888 8.7851 14.7038 8.79434 14.5155C8.80359 14.3272 8.88254 14.1491 9.01585 14.0158C9.14915 13.8825 9.32726 13.8036 9.51555 13.7943C9.70384 13.7851 9.88884 13.8462 10.0346 13.9658L11.0002 14.9408L11.9658 13.9658C12.1115 13.8462 12.2965 13.7851 12.4848 13.7943C12.6731 13.8036 12.8512 13.8825 12.9845 14.0158C13.1178 14.1491 13.1968 14.3272 13.206 14.5155C13.2153 14.7038 13.1542 14.8888 13.0346 15.0345L11.7502 16.3095V17.5002H15.5002C16.0962 17.4977 16.667 17.2598 17.0885 16.8384C17.5099 16.417 17.7477 15.8461 17.7502 15.2502ZM20.1971 10.1314L18.6596 1.9189L14.5533 2.95015L20.1971 10.1314Z" fill="#F96120"/>
</svg>
