<svg width="24" height="24" viewBox="0 0 24 24" fill="none" xmlns="http://www.w3.org/2000/svg">
<path d="M19 15C20.6569 15 22 13.6569 22 12C22 10.3431 20.6569 9 19 9C17.3431 9 16 10.3431 16 12C16 13.6569 17.3431 15 19 15Z" fill="#1BA107"/>
<path d="M15 11C15.5523 11 16 10.5523 16 9.99998C16 9.44771 15.5523 9 15 9C14.4477 9 14 9.44771 14 9.99998C14 10.5523 14.4477 11 15 11Z" fill="#1BA107"/>
<path d="M17 8.99997C17.5523 8.99997 18 8.55226 18 7.99998C18 7.44771 17.5523 7 17 7C16.4477 7 16 7.44771 16 7.99998C16 8.55226 16.4477 8.99997 17 8.99997Z" fill="#1BA107"/>
<path d="M21 8.99997C21.5523 8.99997 22 8.55226 22 7.99998C22 7.44771 21.5523 7 21 7C20.4477 7 20 7.44771 20 7.99998C20 8.55226 20.4477 8.99997 21 8.99997Z" fill="#1BA107"/>
<path d="M23 11C23.5523 11 24 10.5523 24 9.99998C24 9.44771 23.5523 9 23 9C22.4477 9 22 9.44771 22 9.99998C22 10.5523 22.4477 11 23 11Z" fill="#1BA107"/>
<path d="M12.2999 21.7998C9.26362 21.7965 6.80315 19.336 6.79982 16.2998V12.7998H4.7998V16.2998C4.7998 20.442 8.15765 23.7998 12.2998 23.7998C16.442 23.7998 19.7998 20.442 19.7998 16.2998H17.7998C17.7965 19.336 15.336 21.7965 12.2999 21.7998Z" fill="#1BA107"/>
<path d="M12 6V0.999984C12 0.447703 11.5523 0 11 0H8.00002V2.00002H10V6C10 8.20912 8.20917 9.99998 6.00005 9.99998C3.79092 9.99998 2.00002 8.20912 2.00002 6V2.00002H4.00003V0H1.00003C0.447703 0 0 0.447703 0 0.999984V6C0 9.31369 2.68631 12 6 12C9.31369 12 12 9.31369 12 6Z" fill="#1BA107"/>
</svg>
